<svg xmlns="http://www.w3.org/2000/svg" xmlns:xlink="http://www.w3.org/1999/xlink" width="500" viewBox="0 0 375 374.999991" height="500" preserveAspectRatio="xMidYMid meet"><defs><g></g><clipPath id="id1"><path d="M 149 63.234375 L 275.183594 63.234375 L 275.183594 232.734375 L 149 232.734375 Z M 149 63.234375 " clip-rule="nonzero"></path></clipPath></defs><path fill="rgb(95.689392%, 98.81897%, 85.099792%)" d="M 264.4375 292.65625 C 285.757812 276.566406 304.183594 256.765625 319.332031 234.765625 C 334.367188 212.929688 346.507812 185.507812 337.816406 160.460938 C 332.558594 145.332031 320.476562 133.617188 313.21875 119.34375 C 302.085938 97.453125 302.339844 69.777344 285.90625 51.527344 C 273.941406 38.238281 255.597656 32.933594 238.070312 29.367188 C 214.230469 24.515625 186.9375 22.535156 168.042969 37.851562 C 150.53125 52.046875 145.964844 76.367188 135.847656 96.511719 C 123.367188 121.359375 104.332031 123.242188 80.878906 129.699219 C -51.003906 166.007812 64.988281 443.144531 264.4375 292.65625 " fill-opacity="1" fill-rule="nonzero"></path><g clip-path="url(#id1)"><path fill="rgb(22.349548%, 20.779419%, 21.179199%)" d="M 274.863281 231 C 270.761719 223.140625 266.789062 215.21875 262.847656 207.277344 C 258.148438 197.820312 252.535156 187.464844 252.140625 176.628906 C 252.101562 175.644531 252.03125 173.609375 251.960938 173.550781 C 251.964844 169.566406 251.90625 165.46875 250.488281 161.625 C 248.976562 157.507812 245.453125 154.601562 242.265625 152.195312 C 238.503906 149.355469 234.324219 146.941406 230.175781 145.199219 C 228.070312 144.316406 225.84375 143.632812 223.695312 142.972656 L 222.75 142.679688 C 221.453125 142.277344 220.375 141.933594 219.359375 141.597656 C 218.25 141.230469 216.988281 140.78125 216.851562 140.691406 L 216.757812 140.625 L 216.65625 140.558594 L 216.601562 140.53125 C 206.117188 136.722656 197.492188 131.308594 190.964844 124.441406 C 184.824219 117.976562 178.996094 107.570312 181.066406 97.753906 C 182.644531 90.285156 188.855469 83.613281 196.535156 81.148438 C 198.179688 80.617188 199.863281 80.351562 201.539062 80.351562 C 203.632812 80.351562 205.625 80.761719 207.460938 81.578125 C 211.214844 83.25 214.15625 86.804688 216.199219 92.148438 C 216.300781 92.414062 216.546875 92.578125 216.835938 92.578125 L 216.890625 92.578125 C 217.179688 92.578125 217.425781 92.414062 217.527344 92.148438 C 219.570312 86.804688 222.511719 83.25 226.265625 81.578125 C 228.101562 80.761719 230.09375 80.351562 232.1875 80.351562 C 233.863281 80.351562 235.550781 80.617188 237.195312 81.148438 C 244.867188 83.613281 251.082031 90.285156 252.65625 97.753906 C 254.730469 107.570312 248.90625 117.976562 242.761719 124.441406 C 241.003906 126.292969 234.792969 130.871094 231.808594 133.070312 C 231.261719 133.472656 230.832031 133.792969 230.558594 133.996094 C 229.273438 134.957031 227.914062 135.867188 226.597656 136.742188 C 225.453125 137.507812 211.90625 145.015625 210.773438 145.839844 C 210.53125 146.015625 210.433594 146.320312 210.53125 146.609375 C 210.621094 146.886719 210.855469 147.074219 211.113281 147.074219 C 211.242188 147.074219 211.363281 147.03125 211.480469 146.949219 C 212.742188 146.03125 226.425781 138.425781 227.703125 137.570312 C 228.484375 137.042969 229.269531 136.515625 230.046875 135.976562 C 230.234375 135.851562 230.539062 135.65625 230.941406 135.398438 C 242.5 128.039062 249.648438 120.21875 252.195312 112.167969 C 255.339844 102.222656 254.792969 95.621094 250.308594 89.375 C 245.886719 83.207031 239.1875 79.25 232.824219 79.042969 C 232.640625 79.035156 232.453125 79.03125 232.269531 79.03125 C 225.566406 79.03125 220.109375 83.039062 216.863281 90.332031 C 213.621094 83.039062 208.164062 79.03125 201.457031 79.03125 C 201.273438 79.03125 201.089844 79.035156 200.898438 79.042969 C 194.539062 79.25 187.839844 83.207031 183.417969 89.375 C 178.90625 95.660156 178.253906 103.546875 181.535156 112.179688 C 184.597656 120.242188 190.773438 127.457031 199.886719 133.632812 C 204.4375 136.714844 209.746094 139.386719 215.675781 141.585938 C 215.933594 141.847656 217.101562 142.304688 222.109375 143.859375 L 222.382812 143.945312 C 228.21875 145.757812 232.574219 147.601562 236.5 149.929688 C 240.710938 152.421875 245.390625 155.554688 248.160156 159.847656 C 250.695312 163.789062 250.671875 168.917969 250.648438 173.441406 L 250.648438 173.980469 C 250.585938 174.859375 250.5625 175.746094 250.585938 176.628906 C 250.839844 186.402344 255.546875 196 259.765625 204.558594 C 264.132812 213.410156 268.5625 222.238281 273.113281 231 L 187.453125 231 C 190.820312 226.785156 192.734375 221.113281 193.882812 216.007812 C 195.023438 210.953125 195.902344 204.625 194.84375 199.515625 C 194.339844 197.0625 192.289062 195.195312 190.113281 194.179688 C 185.769531 192.144531 180.304688 193.34375 175.644531 192.832031 C 171.105469 192.339844 163.535156 190.851562 162.867188 185.265625 C 162.511719 182.320312 162.667969 179.257812 162.992188 176.316406 C 163.140625 174.984375 163.570312 173.492188 163.226562 172.164062 C 162.636719 169.824219 159.378906 170.097656 159.851562 166.933594 C 160.039062 165.699219 162.257812 164.992188 160.648438 163.75 C 159.152344 162.59375 156.589844 161.785156 158.539062 159.214844 C 159.222656 158.316406 159.601562 157.140625 159.917969 156.066406 C 160.300781 154.777344 160.667969 152.328125 159.121094 151.585938 C 156.609375 150.375 153.664062 151.128906 151.414062 149.109375 C 149 146.941406 151.523438 143.503906 152.8125 141.476562 C 155.378906 137.441406 157.832031 133.320312 160.070312 129.09375 C 160.902344 127.519531 161.703125 125.914062 162.3125 124.238281 C 163.105469 122.074219 162.402344 119.675781 161.921875 117.519531 C 160.894531 112.925781 162.566406 107.75 163.632812 103.269531 C 163.945312 101.953125 164.238281 100.636719 164.597656 99.328125 C 166.351562 92.953125 169.460938 86.964844 173.722656 81.90625 C 180.75 73.566406 190.746094 68.78125 201.3125 66.726562 C 205.574219 65.894531 210.988281 65.292969 215.527344 65 L 223.21875 64.84375 C 228.367188 65.015625 233.476562 65.660156 238.429688 66.910156 C 248.304688 69.40625 257.191406 74.894531 263.113281 83.257812 C 270.097656 93.117188 272.929688 106.710938 272.113281 118.609375 C 271.347656 129.769531 265.710938 139.398438 260.332031 148.902344 C 259.277344 150.765625 258.195312 152.683594 257.15625 154.640625 C 257.222656 154.679688 257.289062 154.722656 257.355469 154.761719 C 257.773438 154.503906 258.277344 154.585938 258.773438 154.824219 C 260.160156 152.277344 261.609375 149.800781 262.972656 147.402344 C 268.128906 138.316406 272.785156 129.191406 273.667969 118.609375 C 274.628906 107.128906 271.722656 94.277344 265.734375 84.414062 C 260.878906 76.421875 253.328125 70.679688 244.699219 67.28125 C 237.867188 64.59375 230.515625 63.484375 223.15625 63.316406 L 223.15625 63.3125 C 223.15625 63.3125 222.203125 63.253906 221.667969 63.257812 L 221.671875 63.257812 L 221.660156 63.257812 C 221.550781 63.261719 221.457031 63.265625 221.394531 63.269531 L 217.414062 63.4375 C 217.414062 63.417969 217.132812 63.4375 216.808594 63.4375 L 216.765625 63.4375 L 216.734375 63.441406 C 215.324219 63.519531 212.855469 63.621094 211.496094 63.746094 C 200.039062 64.789062 188.699219 67.402344 179.363281 74.441406 C 169.667969 81.757812 164.53125 92.335938 161.894531 103.882812 C 160.925781 108.113281 159.519531 112.78125 160.257812 117.136719 C 160.691406 119.703125 161.539062 122 160.554688 124.511719 C 159.683594 126.734375 158.460938 128.839844 157.308594 130.917969 C 155.175781 134.75 152.90625 138.527344 150.5 142.195312 C 147.828125 146.265625 148.820312 150.460938 153.582031 151.996094 C 154.90625 152.421875 156.324219 152.457031 157.691406 152.695312 C 159.671875 153.039062 158.273438 156.285156 157.820312 157.324219 C 157.027344 159.152344 155.039062 160.75 156.765625 162.78125 C 157.195312 163.289062 159.03125 165.320312 159.738281 164.484375 C 159.304688 164.992188 158.78125 165.339844 158.539062 166.003906 C 157.75 168.175781 158.679688 169.945312 160.351562 171.347656 C 161.859375 172.613281 161.855469 173.039062 161.609375 174.9375 C 161.246094 177.738281 161.09375 180.515625 161.1875 183.339844 C 161.34375 187.894531 163.386719 190.792969 167.675781 192.503906 C 172.230469 194.320312 177.285156 194.773438 182.152344 194.6875 C 186.21875 194.617188 191.550781 194.847656 193.195312 199.394531 C 193.824219 201.148438 193.53125 203.394531 193.519531 205.222656 C 193.503906 208.707031 193.101562 212.1875 192.386719 215.589844 C 191.476562 219.894531 189.902344 224.078125 187.648438 227.859375 C 187 228.953125 186.28125 230.0625 185.417969 231 C 185.09375 231.347656 185.417969 232.757812 185.417969 232.757812 L 275.042969 232.757812 L 275.042969 231 L 274.863281 231 " fill-opacity="1" fill-rule="nonzero"></path></g><g fill="rgb(0%, 0%, 0%)" fill-opacity="1"><g transform="translate(59.039063, 282.799419)"><g><path d="M 13.503906 0.429688 C 18.273438 0.429688 22.960938 -3.957031 22.960938 -8.472656 C 22.960938 -11.609375 19.179688 -16.46875 14.40625 -18.664062 C 9.417969 -20.984375 5.417969 -25.027344 5.417969 -27.21875 C 5.417969 -30.832031 8.257812 -34.355469 11.179688 -34.355469 C 12.554688 -34.355469 14.148438 -33.882812 15.609375 -33.109375 C 17.328125 -32.207031 19.695312 -29.757812 20.339844 -28.121094 C 20.382812 -27.949219 20.554688 -27.691406 20.597656 -27.519531 L 21.15625 -27.519531 L 21.15625 -31.863281 L 20.941406 -31.863281 L 20.898438 -31.390625 C 20.855469 -30.875 19.867188 -31.089844 18.964844 -31.777344 C 17.15625 -33.152344 14.0625 -34.617188 11.179688 -34.617188 C 7.050781 -34.617188 3.011719 -30.359375 3.011719 -26.058594 C 3.011719 -22.960938 7.265625 -17.972656 12.597656 -15.480469 C 16.984375 -13.417969 20.511719 -9.71875 20.511719 -7.566406 C 20.511719 -3.699219 17.027344 0.128906 13.503906 0.128906 C 11.609375 0.128906 9.246094 -0.902344 7.179688 -2.449219 C 5.632812 -3.699219 3.699219 -6.234375 3.054688 -7.824219 C 3.011719 -8 2.839844 -8.257812 2.796875 -8.429688 L 2.234375 -8.429688 L 2.234375 -2.535156 L 2.449219 -2.535156 L 2.492188 -3.398438 C 2.535156 -4.34375 3.828125 -4.257812 5.03125 -3.226562 C 7.480469 -1.117188 10.835938 0.429688 13.503906 0.429688 Z M 13.503906 0.429688 "></path></g></g></g><g fill="rgb(0%, 0%, 0%)" fill-opacity="1"><g transform="translate(83.718451, 282.799419)"><g><path d="M 9.804688 0.429688 C 11.566406 0.429688 14.320312 -1.546875 15.351562 -3.570312 L 15.050781 -3.742188 C 14.320312 -2.277344 12.082031 -0.816406 10.578125 -0.816406 C 8.644531 -0.816406 6.75 -2.796875 6.75 -5.890625 L 6.835938 -22.015625 L 13.976562 -22.015625 L 13.976562 -23.390625 L 6.835938 -23.390625 L 6.835938 -29.023438 L 6.621094 -29.023438 L 1.417969 -22.832031 L 1.417969 -22.402344 L 4.214844 -22.402344 L 4.214844 -6.449219 C 4.214844 -2.277344 6.964844 0.429688 9.804688 0.429688 Z M 9.804688 0.429688 "></path></g></g></g><g fill="rgb(0%, 0%, 0%)" fill-opacity="1"><g transform="translate(99.497781, 282.799419)"><g><path d="M 1.761719 0 L 4.34375 0 L 4.34375 -17.757812 C 5.71875 -20.253906 8.515625 -22.617188 10.191406 -22.617188 C 11.136719 -22.617188 12.039062 -21.886719 12.039062 -21.113281 C 12.039062 -20.339844 12.8125 -19.609375 13.589844 -19.609375 C 14.363281 -19.609375 15.09375 -20.339844 15.09375 -21.113281 C 15.09375 -22.488281 13.246094 -23.824219 11.394531 -23.824219 C 9.289062 -23.824219 5.890625 -21.070312 4.34375 -18.1875 L 4.34375 -23.390625 L 3.054688 -23.390625 L 1.117188 -22.875 L 1.117188 -22.660156 L 1.246094 -22.660156 C 1.503906 -22.574219 1.761719 -21.585938 1.761719 -20.597656 Z M 1.761719 0 "></path></g></g></g><g fill="rgb(0%, 0%, 0%)" fill-opacity="1"><g transform="translate(115.019139, 282.799419)"><g><path d="M 13.632812 0.429688 C 19.523438 0.429688 25.285156 -5.589844 25.285156 -11.695312 C 25.285156 -17.800781 19.523438 -23.824219 13.632812 -23.824219 C 7.738281 -23.824219 1.933594 -17.800781 1.933594 -11.695312 C 1.933594 -5.589844 7.738281 0.429688 13.632812 0.429688 Z M 13.632812 0.171875 C 9.160156 0.171875 4.773438 -5.71875 4.773438 -11.695312 C 4.773438 -17.671875 9.160156 -23.5625 13.632812 -23.5625 C 18.101562 -23.5625 22.445312 -17.671875 22.445312 -11.695312 C 22.445312 -5.71875 18.101562 0.171875 13.632812 0.171875 Z M 13.632812 0.171875 "></path></g></g></g><g fill="rgb(0%, 0%, 0%)" fill-opacity="1"><g transform="translate(142.235259, 282.799419)"><g><path d="M 1.71875 0 L 4.300781 0 L 4.300781 -17.585938 C 6.234375 -20.082031 9.675781 -22.488281 11.222656 -22.488281 C 13.761719 -22.488281 15.824219 -19.179688 15.824219 -15.78125 L 15.824219 0 L 18.402344 0 L 18.402344 -15.78125 C 18.402344 -19.824219 15.566406 -23.824219 12.039062 -23.824219 C 10.40625 -23.824219 6.578125 -20.941406 4.300781 -18.015625 L 4.300781 -23.390625 L 3.011719 -23.390625 L 1.074219 -22.875 L 1.074219 -22.660156 L 1.203125 -22.660156 C 1.460938 -22.574219 1.71875 -21.585938 1.71875 -20.597656 Z M 1.71875 0 "></path></g></g></g><g fill="rgb(0%, 0%, 0%)" fill-opacity="1"><g transform="translate(162.529111, 282.799419)"><g><path d="M 12.125 9.933594 C 17.113281 9.933594 22.015625 6.621094 22.015625 3.269531 C 22.015625 0.0859375 18.707031 -3.054688 13.589844 -3.054688 L 8.300781 -3.054688 C 6.148438 -3.054688 4 -4.386719 4 -5.71875 C 4 -7.265625 7.824219 -8.773438 11.695312 -8.773438 C 15.824219 -8.773438 19.867188 -12.511719 19.867188 -16.339844 C 19.867188 -17.542969 19.4375 -18.75 18.75 -19.824219 C 19.308594 -20.597656 20.296875 -21.199219 21.15625 -21.199219 C 21.671875 -21.199219 22.746094 -20.125 23.261719 -20.125 C 23.824219 -20.125 24.339844 -20.683594 24.339844 -21.242188 L 24.339844 -21.285156 C 24.339844 -22.101562 23.519531 -22.875 22.703125 -22.875 C 21.242188 -22.875 19.394531 -21.542969 18.578125 -20.039062 C 17.070312 -22.1875 14.40625 -23.777344 11.695312 -23.777344 C 7.566406 -23.777344 3.484375 -20.082031 3.484375 -16.339844 C 3.484375 -12.941406 6.75 -9.589844 10.40625 -8.902344 C 6.234375 -8.601562 2.492188 -6.792969 2.492188 -4.945312 C 2.492188 -2.925781 4.6875 -0.988281 7.179688 -0.558594 C 4.558594 0.257812 2.191406 2.40625 2.191406 4.085938 C 2.191406 7.050781 7.09375 9.933594 12.125 9.933594 Z M 11.695312 -8.945312 C 8.859375 -8.945312 6.0625 -12.597656 6.0625 -16.339844 C 6.0625 -19.996094 8.859375 -23.605469 11.695312 -23.605469 C 14.492188 -23.605469 17.242188 -19.996094 17.242188 -16.339844 C 17.242188 -12.597656 14.492188 -8.945312 11.695312 -8.945312 Z M 12.210938 9.761719 C 8.257812 9.761719 4.34375 6.621094 4.34375 3.441406 C 4.34375 1.933594 5.804688 0.171875 7.480469 -0.558594 L 7.4375 -0.515625 C 7.695312 -0.472656 7.957031 -0.472656 8.214844 -0.472656 L 13.375 -0.472656 C 17.328125 -0.472656 19.910156 1.675781 19.910156 3.914062 C 19.910156 6.878906 16.082031 9.761719 12.210938 9.761719 Z M 12.210938 9.761719 "></path></g></g></g><g fill="rgb(0%, 0%, 0%)" fill-opacity="1"><g transform="translate(186.047623, 282.799419)"><g></g></g></g><g fill="rgb(0%, 0%, 0%)" fill-opacity="1"><g transform="translate(198.215335, 282.799419)"><g><path d="M 1.71875 0 L 4.300781 0 L 4.300781 -18.144531 C 5.761719 -20.039062 9.117188 -21.886719 11.007812 -21.886719 C 13.933594 -21.886719 15.824219 -19.566406 15.824219 -17.15625 L 15.824219 0 L 18.402344 0 L 18.402344 -17.15625 C 18.402344 -17.542969 18.359375 -17.929688 18.316406 -18.273438 C 19.824219 -20.125 23.132812 -21.886719 25.113281 -21.886719 C 28.035156 -21.886719 29.929688 -19.566406 29.929688 -17.15625 L 29.929688 0 L 32.507812 0 L 32.507812 -17.15625 C 32.507812 -20.511719 30.015625 -23.824219 26.144531 -23.824219 C 24.296875 -23.824219 20.425781 -21.199219 18.273438 -18.445312 C 17.714844 -21.285156 15.394531 -23.777344 12.039062 -23.777344 C 10.277344 -23.777344 6.449219 -21.113281 4.300781 -18.359375 L 4.300781 -23.347656 L 3.011719 -23.347656 L 1.074219 -22.832031 L 1.074219 -22.660156 L 1.203125 -22.660156 C 1.460938 -22.574219 1.71875 -21.585938 1.71875 -20.597656 Z M 1.71875 0 "></path></g></g></g><g fill="rgb(0%, 0%, 0%)" fill-opacity="1"><g transform="translate(232.611695, 282.799419)"><g><path d="M 3.441406 -28.335938 C 4.300781 -28.335938 5.117188 -29.15625 5.117188 -30.015625 C 5.117188 -30.875 4.300781 -31.691406 3.441406 -31.691406 C 2.578125 -31.691406 1.761719 -30.875 1.761719 -30.015625 C 1.761719 -29.15625 2.578125 -28.335938 3.441406 -28.335938 Z M 2.148438 0 L 4.730469 0 L 4.730469 -23.390625 L 3.441406 -23.390625 L 1.503906 -22.875 L 1.503906 -22.660156 L 1.632812 -22.660156 C 1.890625 -22.574219 2.148438 -21.585938 2.148438 -20.597656 Z M 2.148438 0 "></path></g></g></g><g fill="rgb(0%, 0%, 0%)" fill-opacity="1"><g transform="translate(239.232994, 282.799419)"><g><path d="M 1.71875 0 L 4.300781 0 L 4.300781 -17.585938 C 6.234375 -20.082031 9.675781 -22.488281 11.222656 -22.488281 C 13.761719 -22.488281 15.824219 -19.179688 15.824219 -15.78125 L 15.824219 0 L 18.402344 0 L 18.402344 -15.78125 C 18.402344 -19.824219 15.566406 -23.824219 12.039062 -23.824219 C 10.40625 -23.824219 6.578125 -20.941406 4.300781 -18.015625 L 4.300781 -23.390625 L 3.011719 -23.390625 L 1.074219 -22.875 L 1.074219 -22.660156 L 1.203125 -22.660156 C 1.460938 -22.574219 1.71875 -21.585938 1.71875 -20.597656 Z M 1.71875 0 "></path></g></g></g><g fill="rgb(0%, 0%, 0%)" fill-opacity="1"><g transform="translate(259.526858, 282.799419)"><g><path d="M 12.167969 0.257812 C 14.707031 0.257812 18.359375 -1.375 19.78125 -3.097656 L 19.78125 0.0429688 L 21.113281 0.0429688 C 21.414062 -0.128906 21.972656 -0.300781 22.402344 -0.300781 L 22.402344 -34.140625 L 21.113281 -34.140625 L 21.113281 -34.183594 L 19.136719 -33.667969 L 19.136719 -33.453125 L 19.265625 -33.453125 C 19.523438 -33.367188 19.78125 -32.378906 19.78125 -31.390625 L 19.78125 -19.265625 C 18.359375 -21.585938 15.523438 -23.777344 13.332031 -23.777344 C 7.007812 -23.777344 1.933594 -17.84375 1.933594 -11.78125 C 1.933594 -5.71875 7.007812 0.257812 12.167969 0.257812 Z M 13.246094 -0.816406 C 8.859375 -0.816406 4.601562 -6.621094 4.601562 -12.511719 C 4.601562 -17.800781 8.601562 -23.003906 13.632812 -23.003906 C 15.867188 -23.003906 19.007812 -19.996094 19.78125 -17.5 L 19.78125 -3.398438 C 18.621094 -2.0625 15.523438 -0.816406 13.246094 -0.816406 Z M 13.246094 -0.816406 "></path></g></g></g><g fill="rgb(0%, 0%, 0%)" fill-opacity="1"><g transform="translate(284.034264, 282.799419)"><g><path d="M 10.234375 0.34375 C 13.71875 0.34375 17.15625 -2.710938 17.15625 -5.847656 C 17.15625 -8.171875 14.320312 -11.480469 10.792969 -12.769531 C 7.265625 -14.0625 4.429688 -17.027344 4.429688 -19.050781 C 4.429688 -21.414062 6.578125 -23.734375 8.816406 -23.734375 C 9.71875 -23.734375 10.75 -23.433594 11.738281 -22.917969 C 12.984375 -22.230469 14.964844 -20.296875 15.695312 -18.878906 C 15.738281 -18.835938 15.78125 -18.664062 15.824219 -18.621094 L 16.039062 -18.578125 L 16.039062 -21.328125 L 15.910156 -21.328125 C 15.910156 -21.242188 15.867188 -21.15625 15.867188 -21.070312 C 15.867188 -21.070312 12.597656 -22.917969 11.910156 -23.261719 L 11.867188 -23.21875 C 10.835938 -23.605469 9.761719 -23.867188 8.816406 -23.867188 C 5.675781 -23.867188 2.578125 -21.027344 2.578125 -18.101562 C 2.578125 -15.695312 5.71875 -12.167969 9.675781 -10.75 C 12.726562 -9.632812 15.179688 -6.964844 15.179688 -5.117188 C 15.179688 -2.40625 12.726562 0.214844 10.234375 0.214844 C 9.117188 0.214844 7.738281 -0.34375 6.492188 -1.203125 C 5.332031 -2.0625 3.613281 -4.128906 2.839844 -5.546875 C 2.796875 -5.589844 2.753906 -5.761719 2.710938 -5.804688 L 2.535156 -5.804688 L 2.535156 -2.578125 L 2.710938 -2.578125 L 2.710938 -2.925781 C 2.753906 -3.140625 3.957031 -2.492188 5.160156 -1.589844 C 6.707031 -0.429688 8.644531 0.34375 10.234375 0.34375 Z M 10.234375 0.34375 "></path></g></g></g></svg>