<svg xmlns="http://www.w3.org/2000/svg" xmlns:xlink="http://www.w3.org/1999/xlink" width="500" viewBox="0 0 375 374.999991" height="500" preserveAspectRatio="xMidYMid meet"><defs><g></g><clipPath id="id1"><path d="M 142.136719 33 L 293 33 L 293 227.777344 L 142.136719 227.777344 Z M 142.136719 33 " clip-rule="nonzero"></path></clipPath></defs><path fill="rgb(95.689392%, 98.81897%, 85.099792%)" d="M 264.4375 292.65625 C 285.757812 276.566406 304.183594 256.765625 319.332031 234.765625 C 334.367188 212.929688 346.507812 185.507812 337.816406 160.460938 C 332.558594 145.332031 320.476562 133.617188 313.21875 119.34375 C 302.085938 97.453125 302.339844 69.777344 285.90625 51.527344 C 273.941406 38.238281 255.597656 32.933594 238.070312 29.367188 C 214.230469 24.515625 186.9375 22.535156 168.042969 37.851562 C 150.53125 52.046875 145.964844 76.367188 135.847656 96.511719 C 123.367188 121.359375 104.332031 123.242188 80.878906 129.699219 C -51.003906 166.007812 64.988281 443.144531 264.4375 292.65625 " fill-opacity="1" fill-rule="nonzero"></path><g clip-path="url(#id1)"><path fill="rgb(32.548523%, 26.269531%, 25.099182%)" d="M 273.945312 153.875 C 282.4375 145.710938 288.128906 136.453125 290.867188 126.359375 C 295.886719 107.847656 291.082031 85.519531 278.011719 66.625 C 264.992188 47.796875 246.300781 35.949219 226.742188 34.121094 C 205.296875 32.125 176.542969 41.285156 164.089844 66.15625 C 158.007812 78.304688 157.867188 90.539062 158.820312 98.660156 C 159.753906 106.597656 157.007812 114.441406 151.480469 119.640625 L 151.203125 119.898438 C 149.5625 121.414062 148.125 122.515625 146.855469 123.488281 C 144.382812 125.382812 142.597656 126.753906 142.449219 129.144531 C 142.207031 133.132812 146.972656 136.980469 157.394531 141.171875 C 154.859375 143.355469 153.753906 145.441406 154.027344 147.5 C 154.382812 150.199219 156.9375 151.667969 159.183594 152.960938 C 160.558594 153.753906 162.273438 154.738281 162.277344 155.511719 C 162.277344 156.078125 161.347656 156.789062 160.453125 157.472656 C 159.058594 158.542969 157.320312 159.871094 157.320312 162.070312 C 157.316406 164.160156 158.878906 166.050781 162.078125 167.828125 C 161.289062 171.851562 160.800781 175.964844 160.625 180.066406 C 160.300781 187.753906 160.136719 191.613281 162.699219 194.328125 C 164.753906 196.503906 167.675781 197.28125 180.4375 196.445312 C 185.648438 196.105469 190.890625 195.59375 196.039062 194.929688 C 198.707031 199.683594 200.703125 204.765625 201.980469 210.046875 C 203.242188 215.285156 203.78125 220.671875 203.589844 226.050781 C 203.574219 226.46875 203.726562 226.875 204.015625 227.171875 C 204.304688 227.472656 204.703125 227.644531 205.121094 227.644531 L 286.085938 227.644531 C 286.636719 227.644531 287.148438 227.347656 287.421875 226.867188 C 287.695312 226.386719 287.6875 225.796875 287.40625 225.320312 L 270.839844 197.34375 C 268.011719 193.066406 264.613281 186.035156 264.488281 176.828125 C 264.457031 174.695312 264.613281 172.554688 264.941406 170.457031 C 265.902344 164.347656 269.015625 158.617188 273.945312 153.875 Z M 261.90625 169.980469 C 261.550781 172.246094 261.382812 174.566406 261.414062 176.871094 C 262.789062 204.125 229.429688 205.515625 206.6875 224.570312 C 206.742188 219.441406 206.160156 214.320312 204.957031 209.328125 C 203.535156 203.421875 201.253906 197.757812 198.179688 192.496094 C 197.871094 191.960938 197.28125 191.664062 196.652344 191.746094 C 191.246094 192.472656 185.71875 193.019531 180.234375 193.378906 C 167.855469 194.191406 165.976562 193.332031 164.925781 192.214844 C 163.253906 190.449219 163.402344 187.023438 163.6875 180.203125 C 163.875 175.875 164.417969 171.542969 165.3125 167.320312 C 165.457031 166.632812 165.117188 165.933594 164.488281 165.621094 C 160.683594 163.738281 160.386719 162.433594 160.386719 162.078125 C 160.386719 161.394531 161.367188 160.644531 162.3125 159.921875 C 163.667969 158.886719 165.351562 157.597656 165.34375 155.5 C 165.335938 152.957031 162.878906 151.542969 160.710938 150.292969 C 159 149.308594 157.226562 148.289062 157.070312 147.097656 C 156.972656 146.359375 157.402344 144.71875 161.371094 142 C 161.84375 141.675781 162.097656 141.113281 162.03125 140.546875 C 161.960938 139.976562 161.582031 139.492188 161.042969 139.289062 C 146.804688 133.945312 145.441406 130.546875 145.511719 129.332031 C 145.570312 128.386719 146.59375 127.558594 148.71875 125.933594 C 149.976562 124.96875 151.539062 123.769531 153.285156 122.160156 L 153.582031 121.882812 C 159.816406 116.019531 162.914062 107.199219 161.867188 98.296875 C 160.964844 90.59375 161.089844 79.003906 166.832031 67.535156 C 178.644531 43.957031 206.019531 35.269531 226.457031 37.183594 C 245.113281 38.929688 262.988281 50.296875 275.492188 68.375 C 288.050781 86.535156 292.691406 107.90625 287.90625 125.550781 C 285.316406 135.101562 279.90625 143.886719 271.824219 151.65625 C 266.402344 156.863281 262.976562 163.199219 261.90625 169.980469 Z M 261.90625 169.980469 " fill-opacity="1" fill-rule="nonzero"></path></g><path fill="rgb(32.548523%, 26.269531%, 25.099182%)" d="M 263.640625 133.460938 C 266.460938 130.011719 280.230469 111.570312 274.359375 87.324219 C 273.457031 83.597656 267.996094 64.476562 249.054688 54.042969 C 233.671875 45.5625 210.566406 43.273438 193.636719 57.277344 C 181.898438 66.988281 172.621094 85.511719 178.367188 105.007812 C 183.828125 123.550781 200.59375 136.664062 219.144531 136.902344 C 219.3125 136.902344 219.484375 136.902344 219.65625 136.902344 C 231.398438 136.902344 243.777344 131.773438 252.078125 123.4375 C 258.777344 116.707031 262.253906 108.589844 262.128906 99.964844 C 261.855469 81.515625 245.378906 64.996094 226.867188 64.617188 C 212.144531 64.367188 195.542969 73.355469 193.09375 88.988281 C 191.816406 97.160156 194.570312 105.824219 200.652344 112.757812 C 206.492188 119.417969 214.566406 123.234375 222.273438 123.0625 C 232.617188 122.78125 242.886719 115.25 246.683594 105.148438 C 247.589844 102.742188 250.347656 95.414062 246.597656 88.492188 C 242.496094 80.925781 232.492188 77.082031 224.742188 80.105469 C 220.683594 81.6875 213.964844 86.390625 214.5625 93.964844 C 215.019531 99.753906 219.628906 104.734375 225.773438 106.078125 C 226.613281 106.257812 227.421875 105.734375 227.597656 104.90625 C 227.78125 104.074219 227.253906 103.253906 226.429688 103.074219 C 221.59375 102.015625 217.972656 98.167969 217.621094 93.71875 C 217.164062 87.9375 222.808594 84.160156 225.855469 82.972656 C 232.234375 80.480469 240.496094 83.683594 243.898438 89.960938 C 246.980469 95.648438 244.679688 101.765625 243.8125 104.066406 C 240.433594 113.046875 231.339844 119.742188 222.1875 119.988281 C 215.429688 120.179688 208.199219 116.710938 202.953125 110.730469 C 197.480469 104.484375 194.988281 96.734375 196.125 89.46875 C 198.25 75.894531 213.246094 67.691406 226.183594 67.691406 C 226.390625 67.691406 226.597656 67.691406 226.800781 67.695312 C 243.738281 68.039062 258.808594 83.144531 259.058594 100.011719 C 259.171875 107.789062 256.007812 115.136719 249.90625 121.265625 C 242.050781 129.15625 230.328125 133.9375 219.183594 133.828125 C 201.96875 133.605469 186.390625 121.398438 181.308594 104.136719 C 175.960938 85.988281 184.628906 68.714844 195.589844 59.648438 C 211.414062 46.566406 233.101562 48.761719 247.578125 56.734375 C 265.390625 66.546875 270.527344 84.539062 271.378906 88.046875 C 277.023438 111.355469 262.898438 129.515625 261.269531 131.511719 C 260.730469 132.167969 260.828125 133.136719 261.484375 133.675781 C 262.136719 134.21875 263.105469 134.117188 263.640625 133.460938 Z M 263.640625 133.460938 " fill-opacity="1" fill-rule="nonzero"></path><g fill="rgb(0%, 0%, 0%)" fill-opacity="1"><g transform="translate(75.584179, 281.535151)"><g><path d="M 21.621094 -21.226562 C 21.972656 -21.402344 22.328125 -21.535156 22.589844 -21.796875 C 24.703125 -24.175781 26.863281 -26.554688 28.933594 -29.0625 C 30.078125 -30.472656 30.871094 -32.101562 31.355469 -33.910156 C 32.191406 -37.035156 30.957031 -39.148438 27.789062 -39.941406 C 27.523438 -40.03125 27.257812 -40.074219 26.996094 -40.074219 C 25.1875 -40.25 23.382812 -40.207031 21.621094 -39.765625 C 18.1875 -38.882812 15.015625 -37.429688 12.109375 -35.539062 C 8.542969 -33.203125 5.242188 -30.5625 2.15625 -27.65625 C 1.1875 -26.730469 0.265625 -25.761719 -0.527344 -24.660156 C -1.144531 -23.824219 -1.585938 -22.8125 -1.980469 -21.84375 C -2.511719 -20.34375 -2.203125 -18.847656 -1.144531 -17.660156 C -0.351562 -16.777344 0.574219 -15.941406 1.542969 -15.324219 C 2.90625 -14.445312 4.359375 -13.695312 5.8125 -13.078125 C 8.71875 -11.800781 11.667969 -10.699219 14.578125 -9.46875 C 16.644531 -8.585938 18.757812 -7.664062 20.785156 -6.648438 C 21.84375 -6.078125 22.855469 -5.371094 23.734375 -4.578125 C 25.761719 -2.730469 26.15625 -0.308594 25.058594 2.203125 C 24.574219 3.347656 23.867188 4.007812 22.589844 4.316406 C 17.4375 5.503906 12.460938 7.355469 7.617188 9.511719 C 6.5625 9.996094 5.546875 10.480469 4.578125 11.054688 C 3.964844 11.449219 3.390625 11.976562 2.90625 12.507812 C 2.511719 12.945312 2.597656 13.605469 3.125 13.914062 C 3.832031 14.269531 4.578125 14.621094 5.328125 14.664062 C 6.5625 14.796875 7.792969 14.839844 8.941406 14.621094 C 15.765625 13.34375 21.621094 10.261719 26.246094 5.109375 C 27.039062 4.226562 27.832031 3.523438 29.109375 3.304688 C 28.667969 3.171875 28.402344 3.082031 28.007812 2.949219 C 28.140625 2.511719 28.273438 2.203125 28.402344 1.894531 C 29.769531 -1.410156 28.800781 -4.050781 26.378906 -5.988281 C 25.1875 -6.957031 23.867188 -7.839844 22.503906 -8.5 C 20.125 -9.6875 17.613281 -10.746094 15.148438 -11.800781 C 12.816406 -12.816406 10.4375 -13.695312 8.148438 -14.796875 C 6.695312 -15.457031 5.242188 -16.292969 3.964844 -17.21875 C 1.894531 -18.804688 1.496094 -20.828125 2.773438 -23.074219 C 3.433594 -24.265625 4.273438 -25.320312 5.195312 -26.289062 C 8.234375 -29.460938 11.582031 -32.234375 15.191406 -34.699219 C 17.351562 -36.199219 19.683594 -37.386719 22.195312 -38.179688 C 23.074219 -38.445312 24 -38.664062 24.925781 -38.753906 C 26.730469 -38.882812 27.917969 -37.785156 27.964844 -36.023438 C 28.007812 -35.273438 27.964844 -34.480469 27.699219 -33.820312 C 27.214844 -32.367188 26.6875 -30.914062 25.980469 -29.546875 C 25.101562 -27.875 24.042969 -26.335938 23.121094 -24.703125 C 22.503906 -23.691406 21.929688 -22.636719 21.359375 -21.578125 C 21.445312 -21.445312 21.535156 -21.3125 21.621094 -21.226562 Z M 6.339844 13.078125 C 6.121094 12.683594 6.429688 12.460938 6.695312 12.285156 C 7.398438 11.757812 8.101562 11.230469 8.851562 10.832031 C 12.992188 8.585938 17.351562 6.824219 21.796875 5.371094 C 22.105469 5.285156 22.414062 5.195312 22.855469 5.109375 C 19.992188 9.425781 10.570312 13.914062 6.339844 13.078125 Z M 6.339844 13.078125 "></path></g></g></g><g fill="rgb(0%, 0%, 0%)" fill-opacity="1"><g transform="translate(110.057607, 281.535151)"><g><path d="M 23.121094 -28.183594 C 21.621094 -28.316406 20.167969 -28.449219 18.671875 -28.359375 C 15.414062 -28.273438 12.109375 -28.050781 8.851562 -27.875 C 8.410156 -27.875 7.96875 -27.964844 7.441406 -28.007812 C 7.75 -29.195312 8.015625 -30.253906 8.277344 -31.265625 C 8.542969 -32.277344 9.160156 -33.203125 9.117188 -34.347656 C 8.058594 -34.789062 7.308594 -34.4375 6.871094 -33.601562 C 6.339844 -32.585938 5.902344 -31.53125 5.503906 -30.472656 C 5.195312 -29.546875 4.933594 -28.578125 4.625 -27.566406 C 3.347656 -27.390625 2.15625 -27.257812 0.96875 -27.082031 C -1.058594 -26.820312 -3.039062 -26.554688 -5.019531 -26.203125 C -5.769531 -26.070312 -6.605469 -26.027344 -7.132812 -25.234375 C -6.078125 -24.660156 -6.078125 -24.660156 -5.460938 -24.75 C -2.640625 -25.101562 0.132812 -25.453125 2.90625 -25.804688 C 3.257812 -25.851562 3.65625 -25.71875 4.09375 -25.671875 C 3.964844 -25.011719 3.832031 -24.484375 3.699219 -24 C 2.070312 -17.703125 0.527344 -11.363281 -0.75 -5.019531 C -1.71875 -0.351562 -2.640625 4.316406 -3.171875 9.070312 C -3.214844 9.730469 -3.214844 10.394531 -3.171875 11.054688 C -3.125 11.363281 -2.949219 11.714844 -2.378906 11.625 C -2.246094 11.097656 -2.070312 10.570312 -1.9375 9.996094 C -1.71875 8.808594 -1.496094 7.617188 -1.277344 6.429688 C 1.011719 -4.183594 4.050781 -14.621094 6.695312 -25.144531 C 6.78125 -25.542969 7 -25.851562 7.179688 -26.203125 C 12.859375 -26.730469 18.40625 -27.390625 24.089844 -27.742188 C 23.78125 -27.917969 23.425781 -28.183594 23.121094 -28.183594 Z M 23.121094 -28.183594 "></path></g></g></g><g fill="rgb(0%, 0%, 0%)" fill-opacity="1"><g transform="translate(117.322118, 281.535151)"><g><path d="M 12.902344 -12.460938 C 12.59375 -13.605469 11.890625 -14.136719 10.699219 -14.046875 C 9.777344 -13.960938 9.027344 -13.605469 8.410156 -12.902344 C 7.308594 -11.582031 6.210938 -10.214844 5.0625 -8.894531 C 4.800781 -8.542969 4.492188 -8.191406 3.917969 -7.574219 C 4.09375 -9.996094 5.242188 -11.800781 5.371094 -13.960938 C 4.492188 -14.269531 3.964844 -14.136719 3.609375 -13.519531 C 3.347656 -13.121094 3.125 -12.683594 2.949219 -12.285156 C 1.585938 -9.070312 0.21875 -5.855469 -1.144531 -2.640625 C -1.363281 -2.113281 -1.542969 -1.542969 -1.671875 -0.96875 C -1.894531 -0.0429688 -1.453125 0.484375 -0.484375 0.484375 C 0.175781 0.484375 0.835938 0.308594 1.320312 -0.21875 C 1.894531 -0.75 2.464844 -1.320312 2.949219 -1.980469 C 3.964844 -3.257812 4.84375 -4.578125 5.8125 -5.855469 C 7 -7.441406 8.234375 -9.027344 9.511719 -10.613281 C 9.777344 -10.964844 10.128906 -11.230469 10.613281 -11.625 C 10.832031 -10.964844 11.007812 -10.480469 11.140625 -9.996094 C 11.273438 -9.601562 11.316406 -9.203125 11.539062 -8.851562 C 11.667969 -8.632812 12.023438 -8.410156 12.285156 -8.367188 C 12.417969 -8.367188 12.726562 -8.675781 12.816406 -8.894531 C 13.167969 -10.085938 13.167969 -11.273438 12.902344 -12.460938 Z M 12.902344 -12.460938 "></path></g></g></g><g fill="rgb(0%, 0%, 0%)" fill-opacity="1"><g transform="translate(132.731697, 281.535151)"><g><path d="M 10.480469 -4.492188 C 9.644531 -4.226562 8.808594 -3.964844 7.882812 -4.316406 C 8.148438 -4.976562 8.367188 -5.59375 8.585938 -6.164062 C 9.117188 -7.617188 9.554688 -9.070312 9.601562 -10.613281 C 9.6875 -12.59375 8.941406 -13.738281 7.53125 -13.914062 C 7.132812 -13.960938 6.738281 -13.914062 6.339844 -13.828125 C 5.109375 -13.5625 4.050781 -12.769531 3.082031 -11.714844 C 2.070312 -10.613281 1.320312 -9.335938 1.363281 -7.617188 C 0.878906 -6.824219 0.394531 -6.078125 -0.0429688 -5.328125 C -0.527344 -4.359375 -1.011719 -3.347656 -1.1875 -2.203125 C -1.410156 -0.617188 -1.011719 0.441406 0.0898438 0.792969 C 0.75 1.011719 1.496094 1.011719 2.15625 0.878906 C 3.214844 0.703125 4.183594 0 5.0625 -0.878906 C 5.769531 -1.542969 6.472656 -2.246094 7.265625 -3.039062 C 10.214844 -3.125 10.570312 -3.214844 11.667969 -4.316406 C 11.007812 -4.710938 11.007812 -4.710938 10.480469 -4.492188 Z M 1.363281 -0.0898438 C 0.925781 -0.0429688 0.574219 -0.308594 0.574219 -0.925781 C 0.527344 -1.496094 0.574219 -2.113281 0.703125 -2.6875 C 1.011719 -3.832031 1.410156 -4.933594 2.113281 -5.988281 C 2.730469 -5.460938 3.171875 -5.019531 3.65625 -4.625 C 4.140625 -4.273438 4.667969 -3.917969 5.195312 -3.566406 C 4.449219 -2.027344 2.511719 -0.308594 1.363281 -0.0898438 Z M 6.210938 -4.933594 C 5.152344 -5.460938 4.492188 -6.210938 4.183594 -7.574219 C 4.007812 -8.367188 4.007812 -8.984375 4.359375 -9.6875 C 5.109375 -11.097656 6.03125 -12.242188 7.265625 -12.726562 C 7.839844 -12.417969 7.925781 -11.714844 7.925781 -11.054688 C 7.925781 -8.808594 7.308594 -6.78125 6.210938 -4.933594 Z M 6.210938 -4.933594 "></path></g></g></g><g fill="rgb(0%, 0%, 0%)" fill-opacity="1"><g transform="translate(143.210212, 281.535151)"><g><path d="M 15.238281 -4.886719 C 13.785156 -4.007812 12.550781 -2.730469 10.746094 -1.894531 C 10.964844 -2.773438 11.097656 -3.433594 11.316406 -4.007812 C 12.023438 -5.902344 12.769531 -7.792969 13.429688 -9.6875 C 13.695312 -10.347656 13.914062 -11.054688 14.046875 -11.800781 C 14.222656 -12.992188 13.695312 -13.476562 12.460938 -13.519531 C 11.667969 -13.5625 10.964844 -13.386719 10.347656 -12.945312 C 9.292969 -12.152344 8.191406 -11.363281 7.179688 -10.480469 C 5.988281 -9.425781 4.886719 -8.234375 3.742188 -7.089844 C 3.523438 -6.914062 3.257812 -6.78125 2.730469 -6.386719 C 3.171875 -7.882812 3.566406 -9.027344 3.832031 -10.171875 C 4.140625 -11.449219 3.742188 -11.890625 2.421875 -11.847656 C 2.15625 -11.847656 1.9375 -11.667969 1.628906 -11.582031 C 1.011719 -9.511719 0.351562 -7.441406 -0.175781 -5.371094 C -0.527344 -3.917969 0.175781 -3.171875 1.671875 -3.523438 C 2.15625 -3.609375 2.640625 -3.917969 3.082031 -4.226562 C 3.789062 -4.800781 4.492188 -5.460938 5.152344 -6.078125 C 6.296875 -7.222656 7.441406 -8.367188 8.585938 -9.46875 C 9.335938 -10.171875 10.128906 -10.746094 10.921875 -11.40625 C 11.273438 -10.613281 10.832031 -10.085938 10.65625 -9.554688 C 9.996094 -7.53125 9.246094 -5.503906 8.585938 -3.480469 C 8.367188 -2.773438 8.324219 -2.027344 8.277344 -1.277344 C 8.277344 -0.574219 8.675781 -0.175781 9.378906 -0.0898438 C 9.910156 -0.0429688 10.480469 -0.0429688 10.964844 -0.21875 C 11.625 -0.484375 12.285156 -0.835938 12.859375 -1.320312 C 15.015625 -3.082031 17.175781 -4.886719 19.332031 -6.695312 C 19.464844 -6.824219 19.550781 -7 19.816406 -7.355469 C 17.789062 -7.132812 16.601562 -5.8125 15.238281 -4.886719 Z M 15.238281 -4.886719 "></path></g></g></g><g fill="rgb(0%, 0%, 0%)" fill-opacity="1"><g transform="translate(160.865185, 281.535151)"><g><path d="M 21.09375 -4.140625 C 19.199219 -2.996094 17.304688 -1.804688 15.414062 -0.660156 C 15.191406 -0.527344 14.882812 -0.441406 14.355469 -0.265625 C 14.578125 -1.011719 14.707031 -1.496094 14.839844 -1.980469 C 15.765625 -4.667969 16.515625 -7.398438 16.820312 -10.214844 C 16.910156 -11.140625 16.953125 -12.066406 16.867188 -12.992188 C 16.734375 -14.355469 15.898438 -14.972656 14.53125 -14.929688 C 13.785156 -14.929688 13.078125 -14.621094 12.550781 -14.09375 C 12.023438 -13.605469 11.539062 -13.035156 11.054688 -12.460938 C 10.394531 -11.714844 9.820312 -10.921875 9.246094 -10.214844 C 6.03125 -9.996094 4.667969 -9.554688 2.070312 -7.664062 C 1.058594 -6.871094 0.132812 -5.988281 -0.792969 -5.152344 C -1.1875 -4.757812 -1.496094 -4.359375 -1.804688 -3.875 C -2.820312 -2.203125 -2.203125 -0.835938 -0.21875 -0.574219 C 0.527344 -0.484375 1.363281 -0.617188 2.15625 -0.75 C 3.433594 -1.058594 4.535156 -1.71875 5.460938 -2.597656 C 6.515625 -3.523438 7.574219 -4.492188 8.457031 -5.546875 C 9.863281 -7.265625 11.183594 -9.070312 12.507812 -10.832031 C 12.992188 -11.449219 13.386719 -12.152344 14.136719 -12.636719 C 14.753906 -11.976562 14.53125 -11.230469 14.488281 -10.523438 C 14.269531 -6.871094 13.210938 -3.390625 12.066406 0.0429688 C 11.625 1.363281 10.878906 2.332031 9.6875 3.082031 C 4.800781 6.210938 0 9.378906 -4.800781 12.59375 C -7.792969 14.621094 -10.65625 16.820312 -13.167969 19.464844 C -14.136719 20.519531 -14.972656 21.621094 -15.722656 22.8125 C -16.117188 23.382812 -16.292969 24.175781 -16.382812 24.878906 C -16.515625 25.9375 -16.074219 26.511719 -15.105469 26.90625 C -14.046875 27.304688 -12.992188 27.304688 -11.933594 27.082031 C -10.214844 26.773438 -8.585938 26.15625 -7 25.410156 C 0.484375 21.710938 6.078125 16.117188 10.085938 8.894531 C 10.964844 7.222656 11.847656 5.546875 12.550781 3.832031 C 13.121094 2.289062 14.09375 1.234375 15.457031 0.351562 C 17.703125 -1.058594 19.90625 -2.597656 22.105469 -4.140625 C 22.457031 -4.359375 22.8125 -4.667969 23.121094 -4.933594 C 22.371094 -4.800781 21.710938 -4.492188 21.09375 -4.140625 Z M 8.191406 -8.71875 C 6.648438 -6.605469 5.019531 -4.625 2.90625 -3.039062 C 2.378906 -2.6875 1.804688 -2.378906 1.011719 -1.894531 C 0.75 -3.125 1.234375 -3.699219 1.671875 -4.226562 C 3.433594 -6.339844 5.460938 -8.148438 8.148438 -9.335938 C 8.148438 -9.070312 8.277344 -8.851562 8.191406 -8.71875 Z M 9.863281 5.285156 C 6.296875 12.992188 1.234375 19.289062 -6.253906 23.472656 C -7.882812 24.394531 -9.6875 25.011719 -11.40625 25.761719 C -11.714844 25.894531 -12.023438 25.980469 -12.375 26.027344 C -13.605469 26.246094 -14.179688 25.628906 -13.738281 24.394531 C -13.476562 23.648438 -13.121094 22.898438 -12.636719 22.28125 C -11.933594 21.3125 -11.183594 20.34375 -10.304688 19.550781 C -8.148438 17.527344 -5.988281 15.5 -3.609375 13.738281 C 0.484375 10.699219 4.710938 7.839844 8.851562 4.933594 C 9.160156 4.710938 9.511719 4.578125 10.128906 4.316406 C 9.996094 4.84375 9.953125 5.0625 9.863281 5.285156 Z M 9.863281 5.285156 "></path></g></g></g><g fill="rgb(0%, 0%, 0%)" fill-opacity="1"><g transform="translate(181.822214, 281.535151)"><g></g></g></g><g fill="rgb(0%, 0%, 0%)" fill-opacity="1"><g transform="translate(195.646811, 281.535151)"><g><path d="M 30.386719 -8.984375 C 29.988281 -8.632812 29.546875 -8.234375 29.109375 -7.839844 C 27.609375 -6.515625 26.15625 -5.152344 24.617188 -3.832031 C 24.441406 -3.65625 24.132812 -3.566406 23.605469 -3.304688 C 23.78125 -4.09375 23.78125 -4.625 23.957031 -5.109375 C 24.617188 -7.179688 25.320312 -9.203125 25.980469 -11.230469 C 26.203125 -11.976562 26.421875 -12.769531 26.511719 -13.5625 C 26.597656 -14.179688 26.203125 -14.578125 25.628906 -14.707031 C 24.703125 -14.882812 23.867188 -14.839844 23.207031 -14.09375 C 22.503906 -13.386719 21.84375 -12.59375 21.183594 -11.847656 C 19.730469 -10.171875 18.1875 -8.632812 16.335938 -7.308594 C 16.074219 -7.132812 15.808594 -6.738281 15.28125 -7.046875 C 15.414062 -8.324219 15.941406 -9.511719 16.292969 -10.699219 C 16.515625 -11.449219 16.734375 -12.242188 16.867188 -13.035156 C 16.953125 -13.871094 16.601562 -14.355469 15.808594 -14.488281 C 15.191406 -14.621094 14.488281 -14.664062 13.871094 -14.488281 C 13.210938 -14.3125 12.59375 -13.960938 12.109375 -13.519531 C 10.613281 -12.199219 9.160156 -10.789062 7.75 -9.378906 C 6.078125 -7.707031 4.492188 -5.988281 2.863281 -4.273438 C 2.597656 -4.007812 2.289062 -3.832031 1.628906 -3.347656 C 1.847656 -4.183594 1.9375 -4.625 2.113281 -5.0625 C 2.597656 -6.429688 3.125 -7.792969 3.609375 -9.203125 C 3.832031 -9.730469 4.226562 -10.347656 3.566406 -10.832031 C 3.125 -11.183594 2.511719 -10.832031 2.027344 -9.953125 C 0.878906 -7.839844 0 -5.59375 -0.617188 -3.257812 C -0.703125 -2.996094 -0.75 -2.730469 -0.75 -2.464844 C -0.792969 -1.804688 -0.351562 -1.234375 0.308594 -1.277344 C 0.878906 -1.277344 1.496094 -1.410156 2.027344 -1.671875 C 2.597656 -1.980469 3.082031 -2.511719 3.566406 -2.949219 C 6.296875 -5.417969 9.027344 -7.925781 11.757812 -10.4375 C 12.242188 -10.878906 12.769531 -11.273438 13.5625 -11.976562 C 13.34375 -10.921875 13.121094 -10.304688 12.992188 -9.6875 C 12.726562 -8.675781 12.460938 -7.617188 12.375 -6.5625 C 12.285156 -5.371094 12.859375 -4.84375 14.046875 -4.757812 C 14.972656 -4.710938 15.765625 -5.019531 16.515625 -5.546875 C 17.96875 -6.648438 19.375 -7.75 20.785156 -8.894531 C 21.3125 -9.292969 21.753906 -9.730469 22.546875 -10.480469 C 22.371094 -9.730469 22.328125 -9.425781 22.238281 -9.160156 C 21.84375 -8.015625 21.402344 -6.871094 21.09375 -5.726562 C 20.875 -4.886719 20.699219 -4.007812 20.652344 -3.125 C 20.566406 -2.027344 21.183594 -1.410156 22.28125 -1.234375 C 23.339844 -1.058594 24.308594 -1.363281 25.101562 -2.070312 C 26.113281 -2.996094 27.171875 -3.964844 28.140625 -4.976562 C 29.0625 -5.988281 29.855469 -7.046875 30.695312 -8.101562 C 30.914062 -8.367188 30.957031 -8.71875 30.386719 -8.984375 Z M 30.386719 -8.984375 "></path></g></g></g><g fill="rgb(0%, 0%, 0%)" fill-opacity="1"><g transform="translate(224.308631, 281.535151)"><g><path d="M 14.929688 -11.492188 C 14.046875 -11.140625 13.828125 -10.480469 13.476562 -9.953125 C 11.316406 -7.089844 8.761719 -4.667969 5.679688 -2.773438 C 4.84375 -2.246094 4.007812 -1.71875 2.820312 -1.628906 C 2.640625 -2.070312 2.421875 -2.464844 2.378906 -2.90625 C 2.378906 -3.433594 2.464844 -3.964844 2.597656 -4.492188 C 3.171875 -6.339844 3.742188 -8.191406 4.359375 -10.039062 C 4.535156 -10.65625 4.886719 -11.273438 4.800781 -11.933594 C 3.304688 -12.460938 2.863281 -12.375 2.203125 -11.273438 C 0.96875 -9.117188 0 -6.824219 -0.574219 -4.402344 C -0.617188 -4.140625 -0.660156 -3.875 -0.703125 -3.609375 C -0.96875 -1.453125 -0.0429688 -0.308594 2.15625 -0.21875 C 3.699219 -0.132812 5.0625 -0.527344 6.386719 -1.320312 C 9.425781 -3.214844 12.023438 -5.59375 13.960938 -8.675781 C 14.355469 -9.292969 14.664062 -9.953125 14.929688 -10.65625 C 15.015625 -10.832031 14.929688 -11.097656 14.929688 -11.492188 Z M 5.636719 -16.074219 C 5.855469 -16.25 6.03125 -16.425781 6.164062 -16.644531 C 6.472656 -17.304688 6.738281 -17.96875 7.132812 -18.757812 C 5.902344 -19.113281 4.84375 -19.066406 3.832031 -18.496094 C 3.039062 -18.054688 2.773438 -17.042969 3.171875 -16.425781 C 3.699219 -15.632812 4.886719 -15.457031 5.636719 -16.074219 Z M 5.636719 -16.074219 "></path></g></g></g><g fill="rgb(0%, 0%, 0%)" fill-opacity="1"><g transform="translate(237.120592, 281.535151)"><g><path d="M 15.238281 -4.886719 C 13.785156 -4.007812 12.550781 -2.730469 10.746094 -1.894531 C 10.964844 -2.773438 11.097656 -3.433594 11.316406 -4.007812 C 12.023438 -5.902344 12.769531 -7.792969 13.429688 -9.6875 C 13.695312 -10.347656 13.914062 -11.054688 14.046875 -11.800781 C 14.222656 -12.992188 13.695312 -13.476562 12.460938 -13.519531 C 11.667969 -13.5625 10.964844 -13.386719 10.347656 -12.945312 C 9.292969 -12.152344 8.191406 -11.363281 7.179688 -10.480469 C 5.988281 -9.425781 4.886719 -8.234375 3.742188 -7.089844 C 3.523438 -6.914062 3.257812 -6.78125 2.730469 -6.386719 C 3.171875 -7.882812 3.566406 -9.027344 3.832031 -10.171875 C 4.140625 -11.449219 3.742188 -11.890625 2.421875 -11.847656 C 2.15625 -11.847656 1.9375 -11.667969 1.628906 -11.582031 C 1.011719 -9.511719 0.351562 -7.441406 -0.175781 -5.371094 C -0.527344 -3.917969 0.175781 -3.171875 1.671875 -3.523438 C 2.15625 -3.609375 2.640625 -3.917969 3.082031 -4.226562 C 3.789062 -4.800781 4.492188 -5.460938 5.152344 -6.078125 C 6.296875 -7.222656 7.441406 -8.367188 8.585938 -9.46875 C 9.335938 -10.171875 10.128906 -10.746094 10.921875 -11.40625 C 11.273438 -10.613281 10.832031 -10.085938 10.65625 -9.554688 C 9.996094 -7.53125 9.246094 -5.503906 8.585938 -3.480469 C 8.367188 -2.773438 8.324219 -2.027344 8.277344 -1.277344 C 8.277344 -0.574219 8.675781 -0.175781 9.378906 -0.0898438 C 9.910156 -0.0429688 10.480469 -0.0429688 10.964844 -0.21875 C 11.625 -0.484375 12.285156 -0.835938 12.859375 -1.320312 C 15.015625 -3.082031 17.175781 -4.886719 19.332031 -6.695312 C 19.464844 -6.824219 19.550781 -7 19.816406 -7.355469 C 17.789062 -7.132812 16.601562 -5.8125 15.238281 -4.886719 Z M 15.238281 -4.886719 "></path></g></g></g><g fill="rgb(0%, 0%, 0%)" fill-opacity="1"><g transform="translate(254.775564, 281.535151)"><g><path d="M 25.980469 -44.609375 C 23.957031 -45.09375 23.605469 -44.960938 22.988281 -43.464844 C 22.765625 -42.890625 22.546875 -42.320312 22.371094 -41.746094 C 20.652344 -36.59375 18.847656 -31.488281 17.175781 -26.289062 C 15.898438 -22.328125 14.179688 -18.539062 12.109375 -14.929688 C 9.777344 -10.921875 6.914062 -7.441406 3.125 -4.757812 C 2.511719 -4.316406 1.894531 -3.917969 1.234375 -3.609375 C 0.96875 -3.480469 0.660156 -3.480469 0.308594 -3.433594 C -0.0429688 -4.359375 0.175781 -5.152344 0.484375 -5.855469 C 1.671875 -8.410156 3.214844 -10.65625 5.242188 -12.550781 C 5.636719 -12.902344 6.121094 -13.167969 6.472656 -13.429688 C 7.089844 -13.253906 7.574219 -13.121094 8.015625 -12.945312 C 8.367188 -13.652344 8.148438 -14.003906 7.617188 -14.179688 C 6.515625 -14.488281 5.460938 -14.269531 4.535156 -13.695312 C 1.496094 -11.714844 -0.574219 -8.941406 -1.980469 -5.679688 C -2.070312 -5.59375 -2.070312 -5.460938 -2.113281 -5.328125 C -2.554688 -3.214844 -1.71875 -2.421875 0.265625 -2.332031 C 0.574219 -2.289062 0.925781 -2.421875 1.234375 -2.464844 C 2.421875 -2.6875 3.390625 -3.257812 4.273438 -3.964844 C 6.914062 -5.988281 9.246094 -8.277344 11.230469 -10.921875 C 11.582031 -11.449219 11.800781 -12.152344 12.59375 -12.417969 C 12.816406 -11.625 12.417969 -10.921875 12.242188 -10.261719 C 11.183594 -6.429688 10.085938 -2.640625 9.070312 1.1875 C 8.542969 3.257812 8.148438 5.371094 7.75 7.484375 C 7.617188 8.101562 7.441406 8.761719 8.015625 9.46875 C 8.277344 9.292969 8.542969 9.203125 8.675781 9.027344 C 8.894531 8.542969 9.070312 8.058594 9.246094 7.53125 C 12.769531 -5.195312 17.042969 -17.703125 21.402344 -30.164062 C 22.722656 -33.953125 24.042969 -37.785156 25.320312 -41.570312 C 25.628906 -42.539062 26.113281 -43.421875 25.980469 -44.609375 Z M 25.980469 -44.609375 "></path></g></g></g><g fill="rgb(0%, 0%, 0%)" fill-opacity="1"><g transform="translate(271.285821, 281.535151)"><g><path d="M 17.304688 -10.085938 C 16.46875 -9.511719 15.675781 -8.894531 14.929688 -8.234375 C 12.417969 -5.902344 9.953125 -3.523438 7.441406 -1.1875 C 6.957031 -0.75 6.472656 -0.308594 5.902344 0.21875 C 4.84375 -1.320312 4.183594 -2.90625 3.742188 -4.578125 C 3.347656 -6.03125 3.566406 -7.398438 4.226562 -8.675781 C 5.152344 -10.523438 6.605469 -11.890625 8.542969 -12.726562 C 8.851562 -12.859375 9.246094 -12.726562 9.730469 -12.726562 C 9.554688 -11.714844 9.425781 -10.878906 9.203125 -9.644531 C 9.820312 -9.820312 10.347656 -9.820312 10.523438 -10.039062 C 11.097656 -10.699219 11.582031 -11.40625 11.976562 -12.199219 C 12.285156 -12.859375 12.023438 -13.519531 11.316406 -13.871094 C 10.921875 -14.046875 10.4375 -14.179688 9.996094 -14.222656 C 6.386719 -14.53125 2.113281 -11.757812 0.925781 -8.367188 C 0.527344 -7.222656 0.308594 -5.988281 0.75 -4.800781 C 1.144531 -3.566406 1.628906 -2.289062 2.203125 -1.101562 C 2.730469 0.0429688 3.347656 1.144531 3.917969 2.289062 C 3.390625 2.863281 2.949219 3.347656 2.511719 3.875 C 1.628906 5.019531 0.703125 6.164062 -0.132812 7.398438 C -0.484375 7.925781 -0.660156 8.632812 -0.75 9.292969 C -0.878906 10.214844 -0.351562 10.746094 0.660156 10.878906 C 1.453125 10.964844 2.246094 10.789062 2.996094 10.394531 C 4.09375 9.777344 5.109375 9.027344 5.945312 8.015625 C 6.914062 6.914062 7.441406 5.636719 7.222656 4.140625 C 7.179688 3.832031 7.132812 3.480469 7.089844 3.125 C 7.617188 2.554688 8.101562 2.027344 8.585938 1.496094 C 11.714844 -1.671875 14.839844 -4.800781 17.921875 -7.96875 C 18.40625 -8.457031 18.890625 -8.894531 19.332031 -9.425781 C 19.507812 -9.644531 19.550781 -9.953125 19.683594 -10.261719 C 18.714844 -10.746094 17.96875 -10.613281 17.304688 -10.085938 Z M 4.535156 7.574219 C 4.007812 8.5 3.257812 9.203125 2.070312 9.378906 C 2.6875 7.882812 3.65625 6.738281 4.886719 5.546875 C 5.242188 6.472656 4.886719 7.046875 4.535156 7.574219 Z M 4.535156 7.574219 "></path></g></g></g></svg>