<svg xmlns="http://www.w3.org/2000/svg" xmlns:xlink="http://www.w3.org/1999/xlink" width="500" viewBox="0 0 375 374.999991" height="500" preserveAspectRatio="xMidYMid meet"><defs><g></g><clipPath id="id1"><path d="M 170 48.121094 L 282.132812 48.121094 L 282.132812 198.121094 L 170 198.121094 Z M 170 48.121094 " clip-rule="nonzero"></path></clipPath></defs><path fill="rgb(77.249146%, 84.709167%, 64.309692%)" d="M 54.050781 96.558594 C 43.21875 96.535156 31.660156 95.6875 22.320312 101.574219 C 8.246094 110.441406 4.988281 131.648438 9.933594 148.335938 C 14.875 165.027344 25.925781 178.65625 35.386719 192.925781 C 44.847656 207.191406 53.214844 223.882812 51.460938 241.292969 C 50.316406 252.679688 44.886719 263.292969 44.457031 274.738281 C 43.867188 290.445312 53.007812 305.101562 64.804688 314.421875 C 76.601562 323.742188 90.832031 328.675781 104.785156 333.457031 C 123.855469 339.992188 144.050781 346.597656 163.566406 341.816406 C 196.9375 333.644531 217.765625 295.046875 250.859375 285.675781 C 273.222656 279.347656 297.570312 287.546875 319.800781 280.703125 C 343.761719 273.324219 361.007812 248.757812 365.621094 222.472656 C 370.238281 196.1875 363.746094 168.769531 352.304688 145.007812 C 340.867188 121.242188 324.710938 100.53125 308.691406 80.035156 C 295.335938 62.945312 281.042969 45.132812 261.488281 37.558594 C 238.089844 28.496094 211.484375 35.300781 188.929688 44.066406 C 174.023438 49.859375 161.769531 60.871094 148.3125 69.519531 C 133.890625 78.785156 117.519531 85.515625 101.285156 90.054688 C 85.882812 94.355469 69.96875 96.589844 54.050781 96.558594 " fill-opacity="1" fill-rule="nonzero"></path><g clip-path="url(#id1)"><path fill="rgb(22.349548%, 20.779419%, 21.179199%)" d="M 281.847656 196.585938 C 278.207031 189.632812 274.675781 182.621094 271.175781 175.59375 C 267.003906 167.226562 262.015625 158.0625 261.667969 148.472656 C 261.632812 147.601562 261.570312 145.800781 261.507812 145.75 C 261.507812 142.222656 261.457031 138.597656 260.199219 135.191406 C 258.855469 131.550781 255.726562 128.976562 252.894531 126.847656 C 249.554688 124.335938 245.84375 122.199219 242.15625 120.660156 C 240.285156 119.875 238.308594 119.273438 236.402344 118.6875 L 235.5625 118.429688 C 234.410156 118.074219 233.453125 117.769531 232.546875 117.46875 C 231.566406 117.144531 230.441406 116.75 230.324219 116.667969 L 230.238281 116.609375 L 230.148438 116.550781 L 230.097656 116.527344 C 220.789062 113.15625 213.128906 108.367188 207.332031 102.289062 C 201.875 96.566406 196.699219 87.359375 198.539062 78.671875 C 199.9375 72.0625 205.457031 66.15625 212.277344 63.976562 C 213.738281 63.507812 215.234375 63.269531 216.722656 63.269531 C 218.582031 63.269531 220.351562 63.632812 221.980469 64.355469 C 225.316406 65.835938 227.925781 68.980469 229.742188 73.710938 C 229.835938 73.945312 230.050781 74.089844 230.308594 74.089844 L 230.359375 74.089844 C 230.617188 74.089844 230.832031 73.945312 230.921875 73.710938 C 232.738281 68.980469 235.351562 65.835938 238.683594 64.355469 C 240.316406 63.632812 242.085938 63.269531 243.941406 63.269531 C 245.433594 63.269531 246.929688 63.507812 248.390625 63.976562 C 255.207031 66.15625 260.726562 72.0625 262.125 78.671875 C 263.96875 87.359375 258.792969 96.566406 253.335938 102.289062 C 251.773438 103.925781 246.257812 107.980469 243.609375 109.925781 C 243.121094 110.28125 242.738281 110.5625 242.5 110.746094 C 241.355469 111.59375 240.148438 112.398438 238.980469 113.175781 C 237.960938 113.851562 225.929688 120.496094 224.925781 121.226562 C 224.710938 121.382812 224.625 121.648438 224.707031 121.90625 C 224.789062 122.152344 224.996094 122.316406 225.226562 122.316406 C 225.339844 122.316406 225.449219 122.277344 225.550781 122.207031 C 226.671875 121.394531 238.828125 114.664062 239.960938 113.90625 C 240.65625 113.441406 241.351562 112.976562 242.042969 112.496094 C 242.207031 112.382812 242.480469 112.210938 242.835938 111.984375 C 253.101562 105.472656 259.453125 98.550781 261.714844 91.425781 C 264.507812 82.625 264.019531 76.785156 260.039062 71.257812 C 256.109375 65.796875 250.160156 62.296875 244.511719 62.109375 C 244.34375 62.105469 244.179688 62.101562 244.015625 62.101562 C 238.0625 62.101562 233.21875 65.648438 230.332031 72.101562 C 227.453125 65.648438 222.605469 62.101562 216.648438 62.101562 C 216.484375 62.101562 216.320312 62.105469 216.15625 62.109375 C 210.503906 62.296875 204.554688 65.796875 200.625 71.257812 C 196.617188 76.820312 196.042969 83.796875 198.953125 91.4375 C 201.675781 98.570312 207.160156 104.957031 215.253906 110.421875 C 219.296875 113.148438 224.011719 115.515625 229.277344 117.460938 C 229.507812 117.695312 230.546875 118.09375 234.992188 119.472656 L 235.238281 119.546875 C 240.417969 121.152344 244.289062 122.785156 247.773438 124.84375 C 251.515625 127.050781 255.671875 129.820312 258.128906 133.621094 C 260.382812 137.109375 260.363281 141.648438 260.339844 145.652344 L 260.339844 146.128906 C 260.285156 146.90625 260.261719 147.6875 260.285156 148.472656 C 260.511719 157.121094 264.691406 165.613281 268.4375 173.191406 C 272.316406 181.023438 276.253906 188.832031 280.292969 196.585938 L 204.210938 196.585938 C 207.203125 192.855469 208.902344 187.835938 209.921875 183.320312 C 210.933594 178.847656 211.714844 173.246094 210.777344 168.726562 C 210.328125 166.554688 208.503906 164.902344 206.574219 164.003906 C 202.714844 162.203125 197.863281 163.261719 193.722656 162.8125 C 189.691406 162.375 182.964844 161.058594 182.371094 156.117188 C 182.058594 153.507812 182.195312 150.796875 182.484375 148.195312 C 182.613281 147.015625 183 145.695312 182.695312 144.519531 C 182.167969 142.449219 179.277344 142.691406 179.695312 139.894531 C 179.859375 138.800781 181.832031 138.175781 180.402344 137.074219 C 179.074219 136.050781 176.796875 135.335938 178.53125 133.0625 C 179.136719 132.265625 179.476562 131.222656 179.753906 130.277344 C 180.09375 129.136719 180.417969 126.964844 179.046875 126.308594 C 176.816406 125.238281 174.199219 125.90625 172.199219 124.117188 C 170.058594 122.199219 172.300781 119.15625 173.445312 117.363281 C 175.722656 113.792969 177.902344 110.148438 179.890625 106.40625 C 180.628906 105.011719 181.339844 103.589844 181.882812 102.109375 C 182.585938 100.191406 181.960938 98.070312 181.535156 96.164062 C 180.621094 92.097656 182.105469 87.519531 183.054688 83.550781 C 183.332031 82.386719 183.589844 81.222656 183.910156 80.066406 C 185.46875 74.425781 188.230469 69.125 192.015625 64.648438 C 198.257812 57.265625 207.136719 53.03125 216.519531 51.210938 C 220.304688 50.476562 225.113281 49.945312 229.148438 49.6875 L 235.976562 49.546875 C 240.550781 49.699219 245.089844 50.269531 249.488281 51.375 C 258.257812 53.585938 266.152344 58.441406 271.414062 65.84375 C 277.617188 74.566406 280.132812 86.597656 279.40625 97.125 C 278.726562 107.003906 273.71875 115.523438 268.941406 123.933594 C 268.003906 125.585938 267.042969 127.28125 266.121094 129.011719 C 266.179688 129.046875 266.242188 129.085938 266.296875 129.117188 C 266.671875 128.890625 267.117188 128.964844 267.558594 129.175781 C 268.789062 126.921875 270.078125 124.730469 271.285156 122.609375 C 275.867188 114.566406 280.003906 106.492188 280.789062 97.125 C 281.640625 86.96875 279.058594 75.59375 273.738281 66.867188 C 269.429688 59.792969 262.71875 54.710938 255.054688 51.703125 C 248.988281 49.324219 242.460938 48.34375 235.921875 48.195312 L 235.921875 48.191406 C 235.921875 48.191406 235.078125 48.140625 234.601562 48.144531 L 234.59375 48.144531 C 234.496094 48.144531 234.410156 48.148438 234.355469 48.15625 L 230.820312 48.304688 C 230.824219 48.285156 230.570312 48.304688 230.285156 48.304688 L 230.246094 48.304688 L 230.21875 48.308594 C 228.964844 48.375 226.773438 48.464844 225.5625 48.574219 C 215.390625 49.5 205.316406 51.808594 197.023438 58.039062 C 188.414062 64.515625 183.851562 73.875 181.507812 84.097656 C 180.648438 87.839844 179.398438 91.96875 180.054688 95.824219 C 180.441406 98.09375 181.195312 100.128906 180.320312 102.351562 C 179.546875 104.316406 178.460938 106.179688 177.4375 108.019531 C 175.542969 111.414062 173.527344 114.753906 171.390625 118 C 169.015625 121.601562 169.898438 125.3125 174.125 126.671875 C 175.304688 127.050781 176.5625 127.078125 177.773438 127.289062 C 179.535156 127.59375 178.292969 130.46875 177.890625 131.390625 C 177.1875 133.003906 175.417969 134.417969 176.953125 136.21875 C 177.335938 136.664062 178.96875 138.464844 179.59375 137.722656 C 179.210938 138.175781 178.742188 138.480469 178.53125 139.066406 C 177.828125 140.992188 178.652344 142.558594 180.140625 143.796875 C 181.480469 144.917969 181.476562 145.292969 181.253906 146.972656 C 180.933594 149.453125 180.796875 151.910156 180.882812 154.410156 C 181.023438 158.441406 182.835938 161.007812 186.644531 162.519531 C 190.691406 164.128906 195.179688 164.53125 199.503906 164.453125 C 203.117188 164.390625 207.851562 164.59375 209.3125 168.617188 C 209.871094 170.171875 209.609375 172.160156 209.601562 173.777344 C 209.585938 176.859375 209.226562 179.9375 208.589844 182.953125 C 207.785156 186.761719 206.386719 190.460938 204.386719 193.808594 C 203.808594 194.773438 203.171875 195.757812 202.402344 196.585938 C 202.117188 196.894531 202.402344 198.144531 202.402344 198.144531 L 282.007812 198.144531 L 282.007812 196.585938 L 281.847656 196.585938 " fill-opacity="1" fill-rule="nonzero"></path></g><g fill="rgb(0%, 0%, 0%)" fill-opacity="1"><g transform="translate(68.294261, 250.844207)"><g><path d="M 15.261719 0.484375 C 20.65625 0.484375 25.953125 -4.472656 25.953125 -9.574219 C 25.953125 -13.121094 21.675781 -18.613281 16.28125 -21.09375 C 10.644531 -23.71875 6.125 -28.285156 6.125 -30.765625 C 6.125 -34.847656 9.332031 -38.832031 12.636719 -38.832031 C 14.191406 -38.832031 15.988281 -38.296875 17.640625 -37.421875 C 19.585938 -36.402344 22.257812 -33.632812 22.988281 -31.785156 C 23.035156 -31.589844 23.230469 -31.300781 23.28125 -31.105469 L 23.910156 -31.105469 L 23.910156 -36.011719 L 23.667969 -36.011719 L 23.621094 -35.480469 C 23.570312 -34.894531 22.453125 -35.136719 21.433594 -35.917969 C 19.390625 -37.472656 15.890625 -39.125 12.636719 -39.125 C 7.96875 -39.125 3.402344 -34.3125 3.402344 -29.453125 C 3.402344 -25.953125 8.214844 -20.316406 14.238281 -17.496094 C 19.199219 -15.164062 23.183594 -10.984375 23.183594 -8.554688 C 23.183594 -4.179688 19.246094 0.144531 15.261719 0.144531 C 13.121094 0.144531 10.449219 -1.019531 8.117188 -2.769531 C 6.367188 -4.179688 4.179688 -7.046875 3.449219 -8.84375 C 3.402344 -9.039062 3.207031 -9.332031 3.160156 -9.527344 L 2.527344 -9.527344 L 2.527344 -2.867188 L 2.769531 -2.867188 L 2.820312 -3.839844 C 2.867188 -4.910156 4.324219 -4.8125 5.6875 -3.644531 C 8.457031 -1.261719 12.246094 0.484375 15.261719 0.484375 Z M 15.261719 0.484375 "></path></g></g></g><g fill="rgb(0%, 0%, 0%)" fill-opacity="1"><g transform="translate(96.189202, 250.844207)"><g><path d="M 11.082031 0.484375 C 13.074219 0.484375 16.183594 -1.75 17.351562 -4.035156 L 17.011719 -4.226562 C 16.183594 -2.574219 13.65625 -0.921875 11.957031 -0.921875 C 9.769531 -0.921875 7.628906 -3.160156 7.628906 -6.660156 L 7.726562 -24.882812 L 15.796875 -24.882812 L 15.796875 -26.4375 L 7.726562 -26.4375 L 7.726562 -32.804688 L 7.484375 -32.804688 L 1.605469 -25.808594 L 1.605469 -25.320312 L 4.761719 -25.320312 L 4.761719 -7.289062 C 4.761719 -2.574219 7.875 0.484375 11.082031 0.484375 Z M 11.082031 0.484375 "></path></g></g></g><g fill="rgb(0%, 0%, 0%)" fill-opacity="1"><g transform="translate(114.024469, 250.844207)"><g><path d="M 1.992188 0 L 4.910156 0 L 4.910156 -20.070312 C 6.464844 -22.890625 9.621094 -25.5625 11.519531 -25.5625 C 12.585938 -25.5625 13.609375 -24.738281 13.609375 -23.863281 C 13.609375 -22.988281 14.484375 -22.160156 15.359375 -22.160156 C 16.234375 -22.160156 17.058594 -22.988281 17.058594 -23.863281 C 17.058594 -25.417969 14.96875 -26.925781 12.878906 -26.925781 C 10.496094 -26.925781 6.660156 -23.816406 4.910156 -20.558594 L 4.910156 -26.4375 L 3.449219 -26.4375 L 1.261719 -25.855469 L 1.261719 -25.613281 L 1.410156 -25.613281 C 1.699219 -25.515625 1.992188 -24.398438 1.992188 -23.28125 Z M 1.992188 0 "></path></g></g></g><g fill="rgb(0%, 0%, 0%)" fill-opacity="1"><g transform="translate(131.568151, 250.844207)"><g><path d="M 15.40625 0.484375 C 22.066406 0.484375 28.578125 -6.316406 28.578125 -13.21875 C 28.578125 -20.121094 22.066406 -26.925781 15.40625 -26.925781 C 8.75 -26.925781 2.1875 -20.121094 2.1875 -13.21875 C 2.1875 -6.316406 8.75 0.484375 15.40625 0.484375 Z M 15.40625 0.195312 C 10.351562 0.195312 5.394531 -6.464844 5.394531 -13.21875 C 5.394531 -19.976562 10.351562 -26.632812 15.40625 -26.632812 C 20.460938 -26.632812 25.371094 -19.976562 25.371094 -13.21875 C 25.371094 -6.464844 20.460938 0.195312 15.40625 0.195312 Z M 15.40625 0.195312 "></path></g></g></g><g fill="rgb(0%, 0%, 0%)" fill-opacity="1"><g transform="translate(162.330342, 250.844207)"><g><path d="M 1.945312 0 L 4.859375 0 L 4.859375 -19.878906 C 7.046875 -22.695312 10.933594 -25.417969 12.683594 -25.417969 C 15.550781 -25.417969 17.886719 -21.675781 17.886719 -17.835938 L 17.886719 0 L 20.800781 0 L 20.800781 -17.835938 C 20.800781 -22.40625 17.59375 -26.925781 13.609375 -26.925781 C 11.761719 -26.925781 7.4375 -23.667969 4.859375 -20.363281 L 4.859375 -26.4375 L 3.402344 -26.4375 L 1.214844 -25.855469 L 1.214844 -25.613281 L 1.359375 -25.613281 C 1.652344 -25.515625 1.945312 -24.398438 1.945312 -23.28125 Z M 1.945312 0 "></path></g></g></g><g fill="rgb(0%, 0%, 0%)" fill-opacity="1"><g transform="translate(185.268342, 250.844207)"><g><path d="M 13.707031 11.226562 C 19.34375 11.226562 24.882812 7.484375 24.882812 3.695312 C 24.882812 0.0976562 21.140625 -3.449219 15.359375 -3.449219 L 9.378906 -3.449219 C 6.949219 -3.449219 4.519531 -4.957031 4.519531 -6.464844 C 4.519531 -8.214844 8.84375 -9.914062 13.21875 -9.914062 C 17.886719 -9.914062 22.453125 -14.144531 22.453125 -18.46875 C 22.453125 -19.828125 21.96875 -21.191406 21.191406 -22.40625 C 21.820312 -23.28125 22.941406 -23.960938 23.910156 -23.960938 C 24.496094 -23.960938 25.710938 -22.746094 26.292969 -22.746094 C 26.925781 -22.746094 27.507812 -23.378906 27.507812 -24.007812 L 27.507812 -24.058594 C 27.507812 -24.980469 26.585938 -25.855469 25.660156 -25.855469 C 24.007812 -25.855469 21.917969 -24.347656 20.996094 -22.648438 C 19.292969 -25.078125 16.28125 -26.875 13.21875 -26.875 C 8.554688 -26.875 3.9375 -22.695312 3.9375 -18.46875 C 3.9375 -14.628906 7.628906 -10.839844 11.761719 -10.058594 C 7.046875 -9.71875 2.820312 -7.679688 2.820312 -5.589844 C 2.820312 -3.304688 5.296875 -1.117188 8.117188 -0.632812 C 5.152344 0.292969 2.480469 2.722656 2.480469 4.617188 C 2.480469 7.96875 8.019531 11.226562 13.707031 11.226562 Z M 13.21875 -10.109375 C 10.011719 -10.109375 6.851562 -14.238281 6.851562 -18.46875 C 6.851562 -22.597656 10.011719 -26.683594 13.21875 -26.683594 C 16.378906 -26.683594 19.488281 -22.597656 19.488281 -18.46875 C 19.488281 -14.238281 16.378906 -10.109375 13.21875 -10.109375 Z M 13.800781 11.03125 C 9.332031 11.03125 4.910156 7.484375 4.910156 3.886719 C 4.910156 2.1875 6.5625 0.195312 8.457031 -0.632812 L 8.40625 -0.582031 C 8.699219 -0.535156 8.992188 -0.535156 9.28125 -0.535156 L 15.113281 -0.535156 C 19.585938 -0.535156 22.503906 1.894531 22.503906 4.421875 C 22.503906 7.777344 18.175781 11.03125 13.800781 11.03125 Z M 13.800781 11.03125 "></path></g></g></g><g fill="rgb(0%, 0%, 0%)" fill-opacity="1"><g transform="translate(211.851151, 250.844207)"><g></g></g></g><g fill="rgb(0%, 0%, 0%)" fill-opacity="1"><g transform="translate(225.604232, 250.844207)"><g><path d="M 1.945312 0 L 4.859375 0 L 4.859375 -20.507812 C 6.511719 -22.648438 10.304688 -24.738281 12.441406 -24.738281 C 15.746094 -24.738281 17.886719 -22.113281 17.886719 -19.390625 L 17.886719 0 L 20.800781 0 L 20.800781 -19.390625 C 20.800781 -19.828125 20.753906 -20.265625 20.703125 -20.65625 C 22.40625 -22.746094 26.148438 -24.738281 28.382812 -24.738281 C 31.6875 -24.738281 33.828125 -22.113281 33.828125 -19.390625 L 33.828125 0 L 36.742188 0 L 36.742188 -19.390625 C 36.742188 -23.183594 33.921875 -26.925781 29.550781 -26.925781 C 27.460938 -26.925781 23.085938 -23.960938 20.65625 -20.851562 C 20.023438 -24.058594 17.398438 -26.875 13.609375 -26.875 C 11.617188 -26.875 7.289062 -23.863281 4.859375 -20.753906 L 4.859375 -26.390625 L 3.402344 -26.390625 L 1.214844 -25.808594 L 1.214844 -25.613281 L 1.359375 -25.613281 C 1.652344 -25.515625 1.945312 -24.398438 1.945312 -23.28125 Z M 1.945312 0 "></path></g></g></g><g fill="rgb(0%, 0%, 0%)" fill-opacity="1"><g transform="translate(264.482197, 250.844207)"><g><path d="M 3.886719 -32.027344 C 4.859375 -32.027344 5.785156 -32.953125 5.785156 -33.921875 C 5.785156 -34.894531 4.859375 -35.820312 3.886719 -35.820312 C 2.917969 -35.820312 1.992188 -34.894531 1.992188 -33.921875 C 1.992188 -32.953125 2.917969 -32.027344 3.886719 -32.027344 Z M 2.429688 0 L 5.347656 0 L 5.347656 -26.4375 L 3.886719 -26.4375 L 1.699219 -25.855469 L 1.699219 -25.613281 L 1.847656 -25.613281 C 2.136719 -25.515625 2.429688 -24.398438 2.429688 -23.28125 Z M 2.429688 0 "></path></g></g></g><g fill="rgb(0%, 0%, 0%)" fill-opacity="1"><g transform="translate(271.966206, 250.844207)"><g><path d="M 1.945312 0 L 4.859375 0 L 4.859375 -19.878906 C 7.046875 -22.695312 10.933594 -25.417969 12.683594 -25.417969 C 15.550781 -25.417969 17.886719 -21.675781 17.886719 -17.835938 L 17.886719 0 L 20.800781 0 L 20.800781 -17.835938 C 20.800781 -22.40625 17.59375 -26.925781 13.609375 -26.925781 C 11.761719 -26.925781 7.4375 -23.667969 4.859375 -20.363281 L 4.859375 -26.4375 L 3.402344 -26.4375 L 1.214844 -25.855469 L 1.214844 -25.613281 L 1.359375 -25.613281 C 1.652344 -25.515625 1.945312 -24.398438 1.945312 -23.28125 Z M 1.945312 0 "></path></g></g></g><g fill="rgb(0%, 0%, 0%)" fill-opacity="1"><g transform="translate(294.904206, 250.844207)"><g><path d="M 13.753906 0.292969 C 16.621094 0.292969 20.753906 -1.554688 22.355469 -3.5 L 22.355469 0.046875 L 23.863281 0.046875 C 24.203125 -0.144531 24.835938 -0.339844 25.320312 -0.339844 L 25.320312 -38.589844 L 23.863281 -38.589844 L 23.863281 -38.636719 L 21.628906 -38.054688 L 21.628906 -37.8125 L 21.773438 -37.8125 C 22.066406 -37.714844 22.355469 -36.597656 22.355469 -35.480469 L 22.355469 -21.773438 C 20.753906 -24.398438 17.546875 -26.875 15.066406 -26.875 C 7.921875 -26.875 2.1875 -20.167969 2.1875 -13.316406 C 2.1875 -6.464844 7.921875 0.292969 13.753906 0.292969 Z M 14.96875 -0.921875 C 10.011719 -0.921875 5.199219 -7.484375 5.199219 -14.144531 C 5.199219 -20.121094 9.71875 -26 15.40625 -26 C 17.933594 -26 21.480469 -22.597656 22.355469 -19.78125 L 22.355469 -3.839844 C 21.042969 -2.332031 17.546875 -0.921875 14.96875 -0.921875 Z M 14.96875 -0.921875 "></path></g></g></g><g fill="rgb(0%, 0%, 0%)" fill-opacity="1"><g transform="translate(322.604757, 250.844207)"><g><path d="M 11.566406 0.390625 C 15.503906 0.390625 19.390625 -3.0625 19.390625 -6.609375 C 19.390625 -9.234375 16.183594 -12.976562 12.199219 -14.433594 C 8.214844 -15.890625 5.007812 -19.246094 5.007812 -21.53125 C 5.007812 -24.203125 7.4375 -26.828125 9.964844 -26.828125 C 10.984375 -26.828125 12.148438 -26.488281 13.269531 -25.90625 C 14.675781 -25.125 16.914062 -22.941406 17.738281 -21.335938 C 17.789062 -21.289062 17.835938 -21.09375 17.886719 -21.042969 L 18.128906 -20.996094 L 18.128906 -24.105469 L 17.980469 -24.105469 C 17.980469 -24.007812 17.933594 -23.910156 17.933594 -23.816406 C 17.933594 -23.816406 14.238281 -25.90625 13.460938 -26.292969 L 13.414062 -26.246094 C 12.246094 -26.683594 11.03125 -26.972656 9.964844 -26.972656 C 6.414062 -26.972656 2.917969 -23.765625 2.917969 -20.460938 C 2.917969 -17.738281 6.464844 -13.753906 10.933594 -12.148438 C 14.386719 -10.886719 17.15625 -7.875 17.15625 -5.785156 C 17.15625 -2.722656 14.386719 0.242188 11.566406 0.242188 C 10.304688 0.242188 8.75 -0.390625 7.339844 -1.359375 C 6.027344 -2.332031 4.082031 -4.664062 3.207031 -6.269531 C 3.160156 -6.316406 3.109375 -6.511719 3.0625 -6.5625 L 2.867188 -6.5625 L 2.867188 -2.917969 L 3.0625 -2.917969 L 3.0625 -3.304688 C 3.109375 -3.546875 4.472656 -2.820312 5.832031 -1.796875 C 7.582031 -0.484375 9.769531 0.390625 11.566406 0.390625 Z M 11.566406 0.390625 "></path></g></g></g><g fill="rgb(0%, 0%, 0%)" fill-opacity="1"><g transform="translate(344.466448, 250.844207)"><g></g></g></g></svg>