<svg xmlns="http://www.w3.org/2000/svg" xmlns:xlink="http://www.w3.org/1999/xlink" width="480" viewBox="0 0 360 359.999987" height="480" preserveAspectRatio="xMidYMid meet"><defs><clipPath id="id1"><path d="M 237 169 L 306 169 L 306 292.113281 L 237 292.113281 Z M 237 169 " clip-rule="nonzero"></path></clipPath><clipPath id="id2"><path d="M 54.132812 169 L 123 169 L 123 292.113281 L 54.132812 292.113281 Z M 54.132812 169 " clip-rule="nonzero"></path></clipPath><clipPath id="id3"><path d="M 145 67.863281 L 216 67.863281 L 216 129 L 145 129 Z M 145 67.863281 " clip-rule="nonzero"></path></clipPath><clipPath id="id4"><path d="M 216 289 L 240 289 L 240 292.113281 L 216 292.113281 Z M 216 289 " clip-rule="nonzero"></path></clipPath><clipPath id="id5"><path d="M 120 289 L 145 289 L 145 292.113281 L 120 292.113281 Z M 120 289 " clip-rule="nonzero"></path></clipPath><clipPath id="id6"><path d="M 180 289 L 197 289 L 197 292.113281 L 180 292.113281 Z M 180 289 " clip-rule="nonzero"></path></clipPath><clipPath id="id7"><path d="M 163 289 L 181 289 L 181 292.113281 L 163 292.113281 Z M 163 289 " clip-rule="nonzero"></path></clipPath><clipPath id="id8"><path d="M 187 289 L 219 289 L 219 292.113281 L 187 292.113281 Z M 187 289 " clip-rule="nonzero"></path></clipPath><clipPath id="id9"><path d="M 141 289 L 173 289 L 173 292.113281 L 141 292.113281 Z M 141 289 " clip-rule="nonzero"></path></clipPath><clipPath id="id10"><path d="M 177 289 L 183 289 L 183 292.113281 L 177 292.113281 Z M 177 289 " clip-rule="nonzero"></path></clipPath></defs><g clip-path="url(#id1)"><path fill="rgb(77.249146%, 84.709167%, 64.309692%)" d="M 288.902344 169.277344 L 239.925781 169.277344 L 239.925781 171.78125 L 288.902344 171.78125 C 296.960938 171.78125 303.480469 178.117188 303.480469 185.933594 L 303.480469 275.40625 C 303.480469 283.222656 296.960938 289.554688 288.902344 289.554688 L 239.925781 289.554688 C 239.925781 290.9375 238.800781 292.058594 237.417969 292.058594 L 288.902344 292.058594 C 298.328125 292.058594 305.988281 284.585938 305.988281 275.40625 L 305.988281 185.933594 C 305.988281 176.746094 298.328125 169.277344 288.902344 169.277344 " fill-opacity="1" fill-rule="nonzero"></path></g><path fill="rgb(77.249146%, 84.709167%, 64.309692%)" d="M 288.902344 174.285156 C 295.5625 174.285156 300.976562 179.507812 300.976562 185.933594 L 300.976562 275.40625 C 300.976562 281.824219 295.5625 287.050781 288.902344 287.050781 L 239.925781 287.050781 L 239.925781 289.554688 L 288.902344 289.554688 C 296.960938 289.554688 303.480469 283.222656 303.480469 275.40625 L 303.480469 185.933594 C 303.480469 178.117188 296.960938 171.78125 288.902344 171.78125 L 239.925781 171.78125 L 239.925781 174.285156 L 288.902344 174.285156 " fill-opacity="1" fill-rule="nonzero"></path><path fill="rgb(77.249146%, 84.709167%, 64.309692%)" d="M 258.003906 253.058594 L 251.519531 253.058594 C 250.132812 253.058594 249.011719 254.179688 249.011719 255.5625 C 249.011719 256.945312 250.132812 258.066406 251.519531 258.066406 L 258.003906 258.066406 C 259.386719 258.066406 260.507812 256.945312 260.507812 255.5625 C 260.507812 254.179688 259.386719 253.058594 258.003906 253.058594 " fill-opacity="1" fill-rule="nonzero"></path><path fill="rgb(77.249146%, 84.709167%, 64.309692%)" d="M 251.519531 245.234375 L 258.003906 245.234375 C 259.386719 245.234375 260.507812 244.113281 260.507812 242.730469 C 260.507812 241.347656 259.386719 240.226562 258.003906 240.226562 L 251.519531 240.226562 C 250.132812 240.226562 249.011719 241.347656 249.011719 242.730469 C 249.011719 244.113281 250.132812 245.234375 251.519531 245.234375 " fill-opacity="1" fill-rule="nonzero"></path><path fill="rgb(77.249146%, 84.709167%, 64.309692%)" d="M 251.519531 232.40625 L 258.003906 232.40625 C 259.386719 232.40625 260.507812 231.28125 260.507812 229.902344 C 260.507812 228.515625 259.386719 227.398438 258.003906 227.398438 L 251.519531 227.398438 C 250.132812 227.398438 249.011719 228.515625 249.011719 229.902344 C 249.011719 231.28125 250.132812 232.40625 251.519531 232.40625 " fill-opacity="1" fill-rule="nonzero"></path><path fill="rgb(77.249146%, 84.709167%, 64.309692%)" d="M 251.519531 219.570312 L 258.003906 219.570312 C 259.386719 219.570312 260.507812 218.449219 260.507812 217.066406 C 260.507812 215.683594 259.386719 214.5625 258.003906 214.5625 L 251.519531 214.5625 C 250.132812 214.5625 249.011719 215.683594 249.011719 217.066406 C 249.011719 218.449219 250.132812 219.570312 251.519531 219.570312 " fill-opacity="1" fill-rule="nonzero"></path><path fill="rgb(77.249146%, 84.709167%, 64.309692%)" d="M 251.519531 206.738281 L 258.003906 206.738281 C 259.386719 206.738281 260.507812 205.621094 260.507812 204.234375 C 260.507812 202.855469 259.386719 201.730469 258.003906 201.730469 L 251.519531 201.730469 C 250.132812 201.730469 249.011719 202.855469 249.011719 204.234375 C 249.011719 205.621094 250.132812 206.738281 251.519531 206.738281 " fill-opacity="1" fill-rule="nonzero"></path><path fill="rgb(77.249146%, 84.709167%, 64.309692%)" d="M 267.167969 258.066406 L 273.648438 258.066406 C 275.03125 258.066406 276.15625 256.945312 276.15625 255.5625 C 276.15625 254.179688 275.03125 253.058594 273.648438 253.058594 L 267.167969 253.058594 C 265.785156 253.058594 264.660156 254.179688 264.660156 255.5625 C 264.660156 256.945312 265.785156 258.066406 267.167969 258.066406 " fill-opacity="1" fill-rule="nonzero"></path><path fill="rgb(77.249146%, 84.709167%, 64.309692%)" d="M 267.167969 245.234375 L 273.648438 245.234375 C 275.03125 245.234375 276.15625 244.113281 276.15625 242.730469 C 276.15625 241.347656 275.03125 240.226562 273.648438 240.226562 L 267.167969 240.226562 C 265.785156 240.226562 264.660156 241.347656 264.660156 242.730469 C 264.660156 244.113281 265.785156 245.234375 267.167969 245.234375 " fill-opacity="1" fill-rule="nonzero"></path><path fill="rgb(77.249146%, 84.709167%, 64.309692%)" d="M 267.167969 232.40625 L 273.648438 232.40625 C 275.03125 232.40625 276.15625 231.28125 276.15625 229.902344 C 276.15625 228.515625 275.03125 227.398438 273.648438 227.398438 L 267.167969 227.398438 C 265.785156 227.398438 264.660156 228.515625 264.660156 229.902344 C 264.660156 231.28125 265.785156 232.40625 267.167969 232.40625 " fill-opacity="1" fill-rule="nonzero"></path><path fill="rgb(77.249146%, 84.709167%, 64.309692%)" d="M 267.167969 219.570312 L 273.648438 219.570312 C 275.03125 219.570312 276.15625 218.449219 276.15625 217.066406 C 276.15625 215.683594 275.03125 214.5625 273.648438 214.5625 L 267.167969 214.5625 C 265.785156 214.5625 264.660156 215.683594 264.660156 217.066406 C 264.660156 218.449219 265.785156 219.570312 267.167969 219.570312 " fill-opacity="1" fill-rule="nonzero"></path><path fill="rgb(77.249146%, 84.709167%, 64.309692%)" d="M 267.167969 206.738281 L 273.648438 206.738281 C 275.03125 206.738281 276.15625 205.621094 276.15625 204.234375 C 276.15625 202.855469 275.03125 201.730469 273.648438 201.730469 L 267.167969 201.730469 C 265.785156 201.730469 264.660156 202.855469 264.660156 204.234375 C 264.660156 205.621094 265.785156 206.738281 267.167969 206.738281 " fill-opacity="1" fill-rule="nonzero"></path><path fill="rgb(77.249146%, 84.709167%, 64.309692%)" d="M 282.8125 258.066406 L 289.292969 258.066406 C 290.679688 258.066406 291.800781 256.945312 291.800781 255.5625 C 291.800781 254.179688 290.679688 253.058594 289.292969 253.058594 L 282.8125 253.058594 C 281.425781 253.058594 280.304688 254.179688 280.304688 255.5625 C 280.304688 256.945312 281.425781 258.066406 282.8125 258.066406 " fill-opacity="1" fill-rule="nonzero"></path><path fill="rgb(77.249146%, 84.709167%, 64.309692%)" d="M 282.8125 245.234375 L 289.292969 245.234375 C 290.679688 245.234375 291.800781 244.113281 291.800781 242.730469 C 291.800781 241.347656 290.679688 240.226562 289.292969 240.226562 L 282.8125 240.226562 C 281.425781 240.226562 280.304688 241.347656 280.304688 242.730469 C 280.304688 244.113281 281.425781 245.234375 282.8125 245.234375 " fill-opacity="1" fill-rule="nonzero"></path><path fill="rgb(77.249146%, 84.709167%, 64.309692%)" d="M 282.8125 232.40625 L 289.292969 232.40625 C 290.679688 232.40625 291.800781 231.28125 291.800781 229.902344 C 291.800781 228.515625 290.679688 227.398438 289.292969 227.398438 L 282.8125 227.398438 C 281.425781 227.398438 280.304688 228.515625 280.304688 229.902344 C 280.304688 231.28125 281.425781 232.40625 282.8125 232.40625 " fill-opacity="1" fill-rule="nonzero"></path><path fill="rgb(77.249146%, 84.709167%, 64.309692%)" d="M 282.8125 219.570312 L 289.292969 219.570312 C 290.679688 219.570312 291.800781 218.449219 291.800781 217.066406 C 291.800781 215.683594 290.679688 214.5625 289.292969 214.5625 L 282.8125 214.5625 C 281.425781 214.5625 280.304688 215.683594 280.304688 217.066406 C 280.304688 218.449219 281.425781 219.570312 282.8125 219.570312 " fill-opacity="1" fill-rule="nonzero"></path><path fill="rgb(77.249146%, 84.709167%, 64.309692%)" d="M 282.8125 206.738281 L 289.292969 206.738281 C 290.679688 206.738281 291.800781 205.621094 291.800781 204.234375 C 291.800781 202.855469 290.679688 201.730469 289.292969 201.730469 L 282.8125 201.730469 C 281.425781 201.730469 280.304688 202.855469 280.304688 204.234375 C 280.304688 205.621094 281.425781 206.738281 282.8125 206.738281 " fill-opacity="1" fill-rule="nonzero"></path><g clip-path="url(#id2)"><path fill="rgb(77.249146%, 84.709167%, 64.309692%)" d="M 120.4375 289.554688 L 71.457031 289.554688 C 63.402344 289.554688 56.878906 283.222656 56.878906 275.40625 L 56.878906 185.933594 C 56.878906 178.117188 63.402344 171.78125 71.457031 171.78125 L 120.4375 171.78125 L 120.4375 169.277344 L 71.457031 169.277344 C 62.03125 169.277344 54.371094 176.746094 54.371094 185.933594 L 54.371094 275.40625 C 54.371094 284.585938 62.03125 292.058594 71.457031 292.058594 L 122.945312 292.058594 C 121.5625 292.058594 120.4375 290.9375 120.4375 289.554688 " fill-opacity="1" fill-rule="nonzero"></path></g><path fill="rgb(77.249146%, 84.709167%, 64.309692%)" d="M 71.457031 287.050781 C 64.796875 287.050781 59.386719 281.824219 59.386719 275.40625 L 59.386719 185.933594 C 59.386719 179.507812 64.796875 174.285156 71.457031 174.285156 L 120.4375 174.285156 L 120.4375 171.78125 L 71.457031 171.78125 C 63.402344 171.78125 56.878906 178.117188 56.878906 185.933594 L 56.878906 275.40625 C 56.878906 283.222656 63.402344 289.554688 71.457031 289.554688 L 120.4375 289.554688 L 120.4375 287.050781 L 71.457031 287.050781 " fill-opacity="1" fill-rule="nonzero"></path><path fill="rgb(77.249146%, 84.709167%, 64.309692%)" d="M 108.839844 253.058594 L 102.359375 253.058594 C 100.976562 253.058594 99.851562 254.179688 99.851562 255.5625 C 99.851562 256.945312 100.976562 258.066406 102.359375 258.066406 L 108.839844 258.066406 C 110.226562 258.066406 111.347656 256.945312 111.347656 255.5625 C 111.347656 254.179688 110.226562 253.058594 108.839844 253.058594 " fill-opacity="1" fill-rule="nonzero"></path><path fill="rgb(77.249146%, 84.709167%, 64.309692%)" d="M 108.839844 240.226562 L 102.359375 240.226562 C 100.976562 240.226562 99.851562 241.347656 99.851562 242.730469 C 99.851562 244.113281 100.976562 245.234375 102.359375 245.234375 L 108.839844 245.234375 C 110.226562 245.234375 111.347656 244.113281 111.347656 242.730469 C 111.347656 241.347656 110.226562 240.226562 108.839844 240.226562 " fill-opacity="1" fill-rule="nonzero"></path><path fill="rgb(77.249146%, 84.709167%, 64.309692%)" d="M 108.839844 227.398438 L 102.359375 227.398438 C 100.976562 227.398438 99.851562 228.515625 99.851562 229.902344 C 99.851562 231.28125 100.976562 232.40625 102.359375 232.40625 L 108.839844 232.40625 C 110.226562 232.40625 111.347656 231.28125 111.347656 229.902344 C 111.347656 228.515625 110.226562 227.398438 108.839844 227.398438 " fill-opacity="1" fill-rule="nonzero"></path><path fill="rgb(77.249146%, 84.709167%, 64.309692%)" d="M 108.839844 214.5625 L 102.359375 214.5625 C 100.976562 214.5625 99.851562 215.683594 99.851562 217.066406 C 99.851562 218.449219 100.976562 219.570312 102.359375 219.570312 L 108.839844 219.570312 C 110.226562 219.570312 111.347656 218.449219 111.347656 217.066406 C 111.347656 215.683594 110.226562 214.5625 108.839844 214.5625 " fill-opacity="1" fill-rule="nonzero"></path><path fill="rgb(77.249146%, 84.709167%, 64.309692%)" d="M 102.359375 206.738281 L 108.839844 206.738281 C 110.226562 206.738281 111.347656 205.621094 111.347656 204.234375 C 111.347656 202.855469 110.226562 201.730469 108.839844 201.730469 L 102.359375 201.730469 C 100.976562 201.730469 99.851562 202.855469 99.851562 204.234375 C 99.851562 205.621094 100.976562 206.738281 102.359375 206.738281 " fill-opacity="1" fill-rule="nonzero"></path><path fill="rgb(77.249146%, 84.709167%, 64.309692%)" d="M 93.195312 253.058594 L 86.714844 253.058594 C 85.328125 253.058594 84.207031 254.179688 84.207031 255.5625 C 84.207031 256.945312 85.328125 258.066406 86.714844 258.066406 L 93.195312 258.066406 C 94.578125 258.066406 95.703125 256.945312 95.703125 255.5625 C 95.703125 254.179688 94.578125 253.058594 93.195312 253.058594 " fill-opacity="1" fill-rule="nonzero"></path><path fill="rgb(77.249146%, 84.709167%, 64.309692%)" d="M 93.195312 240.226562 L 86.714844 240.226562 C 85.328125 240.226562 84.207031 241.347656 84.207031 242.730469 C 84.207031 244.113281 85.328125 245.234375 86.714844 245.234375 L 93.195312 245.234375 C 94.578125 245.234375 95.703125 244.113281 95.703125 242.730469 C 95.703125 241.347656 94.578125 240.226562 93.195312 240.226562 " fill-opacity="1" fill-rule="nonzero"></path><path fill="rgb(77.249146%, 84.709167%, 64.309692%)" d="M 93.195312 227.398438 L 86.714844 227.398438 C 85.328125 227.398438 84.207031 228.515625 84.207031 229.902344 C 84.207031 231.28125 85.328125 232.40625 86.714844 232.40625 L 93.195312 232.40625 C 94.578125 232.40625 95.703125 231.28125 95.703125 229.902344 C 95.703125 228.515625 94.578125 227.398438 93.195312 227.398438 " fill-opacity="1" fill-rule="nonzero"></path><path fill="rgb(77.249146%, 84.709167%, 64.309692%)" d="M 93.195312 214.5625 L 86.714844 214.5625 C 85.328125 214.5625 84.207031 215.683594 84.207031 217.066406 C 84.207031 218.449219 85.328125 219.570312 86.714844 219.570312 L 93.195312 219.570312 C 94.578125 219.570312 95.703125 218.449219 95.703125 217.066406 C 95.703125 215.683594 94.578125 214.5625 93.195312 214.5625 " fill-opacity="1" fill-rule="nonzero"></path><path fill="rgb(77.249146%, 84.709167%, 64.309692%)" d="M 93.195312 201.730469 L 86.714844 201.730469 C 85.328125 201.730469 84.207031 202.855469 84.207031 204.234375 C 84.207031 205.621094 85.328125 206.738281 86.714844 206.738281 L 93.195312 206.738281 C 94.578125 206.738281 95.703125 205.621094 95.703125 204.234375 C 95.703125 202.855469 94.578125 201.730469 93.195312 201.730469 " fill-opacity="1" fill-rule="nonzero"></path><path fill="rgb(77.249146%, 84.709167%, 64.309692%)" d="M 77.546875 253.058594 L 71.066406 253.058594 C 69.683594 253.058594 68.558594 254.179688 68.558594 255.5625 C 68.558594 256.945312 69.683594 258.066406 71.066406 258.066406 L 77.546875 258.066406 C 78.933594 258.066406 80.054688 256.945312 80.054688 255.5625 C 80.054688 254.179688 78.933594 253.058594 77.546875 253.058594 " fill-opacity="1" fill-rule="nonzero"></path><path fill="rgb(77.249146%, 84.709167%, 64.309692%)" d="M 77.546875 240.226562 L 71.066406 240.226562 C 69.683594 240.226562 68.558594 241.347656 68.558594 242.730469 C 68.558594 244.113281 69.683594 245.234375 71.066406 245.234375 L 77.546875 245.234375 C 78.933594 245.234375 80.054688 244.113281 80.054688 242.730469 C 80.054688 241.347656 78.933594 240.226562 77.546875 240.226562 " fill-opacity="1" fill-rule="nonzero"></path><path fill="rgb(77.249146%, 84.709167%, 64.309692%)" d="M 77.546875 227.398438 L 71.066406 227.398438 C 69.683594 227.398438 68.558594 228.515625 68.558594 229.902344 C 68.558594 231.28125 69.683594 232.40625 71.066406 232.40625 L 77.546875 232.40625 C 78.933594 232.40625 80.054688 231.28125 80.054688 229.902344 C 80.054688 228.515625 78.933594 227.398438 77.546875 227.398438 " fill-opacity="1" fill-rule="nonzero"></path><path fill="rgb(77.249146%, 84.709167%, 64.309692%)" d="M 77.546875 214.5625 L 71.066406 214.5625 C 69.683594 214.5625 68.558594 215.683594 68.558594 217.066406 C 68.558594 218.449219 69.683594 219.570312 71.066406 219.570312 L 77.546875 219.570312 C 78.933594 219.570312 80.054688 218.449219 80.054688 217.066406 C 80.054688 215.683594 78.933594 214.5625 77.546875 214.5625 " fill-opacity="1" fill-rule="nonzero"></path><path fill="rgb(77.249146%, 84.709167%, 64.309692%)" d="M 77.546875 201.730469 L 71.066406 201.730469 C 69.683594 201.730469 68.558594 202.855469 68.558594 204.234375 C 68.558594 205.621094 69.683594 206.738281 71.066406 206.738281 L 77.546875 206.738281 C 78.933594 206.738281 80.054688 205.621094 80.054688 204.234375 C 80.054688 202.855469 78.933594 201.730469 77.546875 201.730469 " fill-opacity="1" fill-rule="nonzero"></path><g clip-path="url(#id3)"><path fill="rgb(77.249146%, 84.709167%, 64.309692%)" d="M 147.828125 81.113281 C 147.828125 75.15625 152.804688 70.324219 158.9375 70.324219 L 201.421875 70.324219 C 207.554688 70.324219 212.53125 75.15625 212.53125 81.113281 L 212.53125 128.210938 L 215.035156 128.210938 L 215.035156 81.113281 C 215.035156 73.78125 208.929688 67.820312 201.421875 67.820312 L 158.9375 67.820312 C 151.429688 67.820312 145.324219 73.78125 145.324219 81.113281 L 145.324219 128.210938 L 147.828125 128.210938 L 147.828125 81.113281 " fill-opacity="1" fill-rule="nonzero"></path></g><path fill="rgb(77.249146%, 84.709167%, 64.309692%)" d="M 150.335938 81.113281 C 150.335938 76.542969 154.195312 72.828125 158.9375 72.828125 L 201.421875 72.828125 C 206.164062 72.828125 210.023438 76.542969 210.023438 81.113281 L 210.023438 128.210938 L 212.53125 128.210938 L 212.53125 81.113281 C 212.53125 75.15625 207.554688 70.324219 201.421875 70.324219 L 158.9375 70.324219 C 152.804688 70.324219 147.828125 75.15625 147.828125 81.113281 L 147.828125 128.210938 L 150.335938 128.210938 L 150.335938 81.113281 " fill-opacity="1" fill-rule="nonzero"></path><path fill="rgb(77.249146%, 84.709167%, 64.309692%)" d="M 217.753906 130.714844 C 228.617188 130.714844 237.417969 139.257812 237.417969 149.800781 L 237.417969 169.277344 L 239.925781 169.277344 L 239.925781 149.800781 C 239.925781 137.894531 229.980469 128.210938 217.753906 128.210938 L 215.035156 128.210938 L 215.035156 130.714844 L 217.753906 130.714844 " fill-opacity="1" fill-rule="nonzero"></path><path fill="rgb(77.249146%, 84.709167%, 64.309692%)" d="M 122.945312 149.800781 C 122.945312 139.257812 131.746094 130.714844 142.601562 130.714844 L 145.324219 130.714844 L 145.324219 128.210938 L 142.601562 128.210938 C 130.382812 128.210938 120.4375 137.894531 120.4375 149.800781 L 120.4375 169.277344 L 122.945312 169.277344 L 122.945312 149.800781 " fill-opacity="1" fill-rule="nonzero"></path><path fill="rgb(77.249146%, 84.709167%, 64.309692%)" d="M 239.925781 287.050781 L 239.925781 174.285156 L 237.417969 174.285156 L 237.417969 287.050781 L 239.925781 287.050781 " fill-opacity="1" fill-rule="nonzero"></path><path fill="rgb(77.249146%, 84.709167%, 64.309692%)" d="M 237.417969 171.78125 L 239.925781 171.78125 L 239.925781 169.277344 L 237.417969 169.277344 L 237.417969 171.78125 " fill-opacity="1" fill-rule="nonzero"></path><g clip-path="url(#id4)"><path fill="rgb(77.249146%, 84.709167%, 64.309692%)" d="M 239.925781 289.554688 L 218.621094 289.554688 C 218.621094 290.9375 217.496094 292.058594 216.113281 292.058594 L 237.417969 292.058594 C 238.800781 292.058594 239.925781 290.9375 239.925781 289.554688 " fill-opacity="1" fill-rule="nonzero"></path></g><path fill="rgb(77.249146%, 84.709167%, 64.309692%)" d="M 237.417969 174.285156 L 239.925781 174.285156 L 239.925781 171.78125 L 237.417969 171.78125 L 237.417969 174.285156 " fill-opacity="1" fill-rule="nonzero"></path><path fill="rgb(77.249146%, 84.709167%, 64.309692%)" d="M 237.417969 287.050781 L 237.417969 289.554688 L 239.925781 289.554688 L 239.925781 287.050781 L 237.417969 287.050781 " fill-opacity="1" fill-rule="nonzero"></path><path fill="rgb(77.249146%, 84.709167%, 64.309692%)" d="M 120.4375 174.285156 L 120.4375 287.050781 L 122.945312 287.050781 L 122.945312 174.285156 L 120.4375 174.285156 " fill-opacity="1" fill-rule="nonzero"></path><g clip-path="url(#id5)"><path fill="rgb(77.249146%, 84.709167%, 64.309692%)" d="M 141.746094 289.554688 L 120.4375 289.554688 C 120.4375 290.9375 121.5625 292.058594 122.945312 292.058594 L 144.253906 292.058594 C 142.867188 292.058594 141.746094 290.9375 141.746094 289.554688 " fill-opacity="1" fill-rule="nonzero"></path></g><path fill="rgb(77.249146%, 84.709167%, 64.309692%)" d="M 122.945312 171.78125 L 122.945312 169.277344 L 120.4375 169.277344 L 120.4375 171.78125 L 122.945312 171.78125 " fill-opacity="1" fill-rule="nonzero"></path><path fill="rgb(77.249146%, 84.709167%, 64.309692%)" d="M 122.945312 174.285156 L 122.945312 171.78125 L 120.4375 171.78125 L 120.4375 174.285156 L 122.945312 174.285156 " fill-opacity="1" fill-rule="nonzero"></path><path fill="rgb(77.249146%, 84.709167%, 64.309692%)" d="M 120.4375 287.050781 L 120.4375 289.554688 L 122.945312 289.554688 L 122.945312 287.050781 L 120.4375 287.050781 " fill-opacity="1" fill-rule="nonzero"></path><path fill="rgb(77.249146%, 84.709167%, 64.309692%)" d="M 210.023438 128.210938 L 150.335938 128.210938 L 150.335938 130.714844 L 210.023438 130.714844 L 210.023438 128.210938 " fill-opacity="1" fill-rule="nonzero"></path><path fill="rgb(77.249146%, 84.709167%, 64.309692%)" d="M 147.828125 130.714844 L 147.828125 128.210938 L 145.324219 128.210938 L 145.324219 130.714844 L 147.828125 130.714844 " fill-opacity="1" fill-rule="nonzero"></path><path fill="rgb(77.249146%, 84.709167%, 64.309692%)" d="M 212.53125 130.714844 L 215.035156 130.714844 L 215.035156 128.210938 L 212.53125 128.210938 L 212.53125 130.714844 " fill-opacity="1" fill-rule="nonzero"></path><path fill="rgb(77.249146%, 84.709167%, 64.309692%)" d="M 210.023438 130.714844 L 212.53125 130.714844 L 212.53125 128.210938 L 210.023438 128.210938 L 210.023438 130.714844 " fill-opacity="1" fill-rule="nonzero"></path><path fill="rgb(77.249146%, 84.709167%, 64.309692%)" d="M 150.335938 128.210938 L 147.828125 128.210938 L 147.828125 130.714844 L 150.335938 130.714844 L 150.335938 128.210938 " fill-opacity="1" fill-rule="nonzero"></path><path fill="rgb(77.249146%, 84.709167%, 64.309692%)" d="M 217.753906 133.21875 C 227.214844 133.21875 234.910156 140.65625 234.910156 149.800781 L 234.910156 169.277344 L 237.417969 169.277344 L 237.417969 149.800781 C 237.417969 139.257812 228.617188 130.714844 217.753906 130.714844 L 215.035156 130.714844 L 215.035156 133.21875 L 217.753906 133.21875 " fill-opacity="1" fill-rule="nonzero"></path><path fill="rgb(77.249146%, 84.709167%, 64.309692%)" d="M 125.453125 149.800781 C 125.453125 140.65625 133.144531 133.21875 142.601562 133.21875 L 145.324219 133.21875 L 145.324219 130.714844 L 142.601562 130.714844 C 131.746094 130.714844 122.945312 139.257812 122.945312 149.800781 L 122.945312 169.277344 L 125.453125 169.277344 L 125.453125 149.800781 " fill-opacity="1" fill-rule="nonzero"></path><path fill="rgb(77.249146%, 84.709167%, 64.309692%)" d="M 234.910156 287.050781 L 237.417969 287.050781 L 237.417969 174.285156 L 234.910156 174.285156 L 234.910156 287.050781 " fill-opacity="1" fill-rule="nonzero"></path><path fill="rgb(77.249146%, 84.709167%, 64.309692%)" d="M 234.910156 171.78125 L 237.417969 171.78125 L 237.417969 169.277344 L 234.910156 169.277344 L 234.910156 171.78125 " fill-opacity="1" fill-rule="nonzero"></path><path fill="rgb(77.249146%, 84.709167%, 64.309692%)" d="M 234.910156 287.050781 L 218.621094 287.050781 L 218.621094 289.554688 L 237.417969 289.554688 L 237.417969 287.050781 L 234.910156 287.050781 " fill-opacity="1" fill-rule="nonzero"></path><path fill="rgb(77.249146%, 84.709167%, 64.309692%)" d="M 234.910156 174.285156 L 237.417969 174.285156 L 237.417969 171.78125 L 234.910156 171.78125 L 234.910156 174.285156 " fill-opacity="1" fill-rule="nonzero"></path><path fill="rgb(77.249146%, 84.709167%, 64.309692%)" d="M 122.945312 174.285156 L 122.945312 287.050781 L 125.453125 287.050781 L 125.453125 174.285156 L 122.945312 174.285156 " fill-opacity="1" fill-rule="nonzero"></path><path fill="rgb(77.249146%, 84.709167%, 64.309692%)" d="M 125.453125 169.277344 L 122.945312 169.277344 L 122.945312 171.78125 L 125.453125 171.78125 L 125.453125 169.277344 " fill-opacity="1" fill-rule="nonzero"></path><path fill="rgb(77.249146%, 84.709167%, 64.309692%)" d="M 125.453125 287.050781 L 122.945312 287.050781 L 122.945312 289.554688 L 141.746094 289.554688 L 141.746094 287.050781 L 125.453125 287.050781 " fill-opacity="1" fill-rule="nonzero"></path><path fill="rgb(77.249146%, 84.709167%, 64.309692%)" d="M 125.453125 174.285156 L 125.453125 171.78125 L 122.945312 171.78125 L 122.945312 174.285156 L 125.453125 174.285156 " fill-opacity="1" fill-rule="nonzero"></path><path fill="rgb(77.249146%, 84.709167%, 64.309692%)" d="M 210.023438 130.714844 L 150.335938 130.714844 L 150.335938 133.21875 L 210.023438 133.21875 L 210.023438 130.714844 " fill-opacity="1" fill-rule="nonzero"></path><path fill="rgb(77.249146%, 84.709167%, 64.309692%)" d="M 215.035156 133.21875 L 215.035156 130.714844 L 212.53125 130.714844 L 212.53125 133.21875 L 215.035156 133.21875 " fill-opacity="1" fill-rule="nonzero"></path><path fill="rgb(77.249146%, 84.709167%, 64.309692%)" d="M 147.828125 133.21875 L 147.828125 130.714844 L 145.324219 130.714844 L 145.324219 133.21875 L 147.828125 133.21875 " fill-opacity="1" fill-rule="nonzero"></path><path fill="rgb(77.249146%, 84.709167%, 64.309692%)" d="M 150.335938 133.21875 L 150.335938 130.714844 L 147.828125 130.714844 L 147.828125 133.21875 L 150.335938 133.21875 " fill-opacity="1" fill-rule="nonzero"></path><path fill="rgb(77.249146%, 84.709167%, 64.309692%)" d="M 210.023438 133.21875 L 212.53125 133.21875 L 212.53125 130.714844 L 210.023438 130.714844 L 210.023438 133.21875 " fill-opacity="1" fill-rule="nonzero"></path><path fill="rgb(77.249146%, 84.709167%, 64.309692%)" d="M 203.769531 250.476562 L 184.378906 250.476562 L 184.378906 252.980469 L 203.769531 252.980469 C 210.585938 252.980469 216.113281 258.34375 216.113281 264.960938 L 216.113281 287.050781 L 218.621094 287.050781 L 218.621094 264.960938 C 218.621094 256.972656 211.957031 250.476562 203.769531 250.476562 " fill-opacity="1" fill-rule="nonzero"></path><path fill="rgb(77.249146%, 84.709167%, 64.309692%)" d="M 180.996094 250.621094 C 181.324219 250.734375 181.621094 250.910156 181.871094 251.140625 L 181.871094 250.476562 L 180.996094 250.476562 L 180.996094 250.621094 " fill-opacity="1" fill-rule="nonzero"></path><path fill="rgb(77.249146%, 84.709167%, 64.309692%)" d="M 181.871094 251.140625 C 182.371094 251.597656 182.6875 252.246094 182.6875 252.980469 L 184.378906 252.980469 L 184.378906 250.476562 L 181.871094 250.476562 L 181.871094 251.140625 " fill-opacity="1" fill-rule="nonzero"></path><path fill="rgb(77.249146%, 84.709167%, 64.309692%)" d="M 156.589844 252.980469 L 175.980469 252.980469 L 175.980469 250.476562 L 156.589844 250.476562 C 148.40625 250.476562 141.746094 256.972656 141.746094 264.960938 L 141.746094 287.050781 L 144.253906 287.050781 L 144.253906 264.960938 C 144.253906 258.34375 149.773438 252.980469 156.589844 252.980469 " fill-opacity="1" fill-rule="nonzero"></path><path fill="rgb(77.249146%, 84.709167%, 64.309692%)" d="M 179.367188 250.621094 L 179.367188 250.476562 L 178.488281 250.476562 L 178.488281 251.140625 C 178.738281 250.910156 179.035156 250.734375 179.367188 250.621094 " fill-opacity="1" fill-rule="nonzero"></path><path fill="rgb(77.249146%, 84.709167%, 64.309692%)" d="M 180.996094 250.621094 L 180.996094 250.476562 L 180.179688 250.476562 C 180.46875 250.476562 180.738281 250.535156 180.996094 250.621094 " fill-opacity="1" fill-rule="nonzero"></path><path fill="rgb(77.249146%, 84.709167%, 64.309692%)" d="M 179.367188 250.476562 L 179.367188 250.621094 C 179.621094 250.535156 179.894531 250.476562 180.179688 250.476562 L 179.367188 250.476562 " fill-opacity="1" fill-rule="nonzero"></path><path fill="rgb(77.249146%, 84.709167%, 64.309692%)" d="M 178.488281 251.140625 L 178.488281 250.476562 L 175.980469 250.476562 L 175.980469 252.980469 L 177.671875 252.980469 C 177.671875 252.246094 177.992188 251.597656 178.488281 251.140625 " fill-opacity="1" fill-rule="nonzero"></path><g clip-path="url(#id6)"><path fill="rgb(77.249146%, 84.709167%, 64.309692%)" d="M 182.6875 289.554688 C 182.6875 290.9375 181.566406 292.058594 180.179688 292.058594 L 196.445312 292.058594 C 193.15625 292.058594 190.09375 291.132812 187.484375 289.554688 L 182.6875 289.554688 " fill-opacity="1" fill-rule="nonzero"></path></g><g clip-path="url(#id7)"><path fill="rgb(77.249146%, 84.709167%, 64.309692%)" d="M 177.671875 289.554688 L 172.878906 289.554688 C 170.269531 291.132812 167.203125 292.058594 163.917969 292.058594 L 180.179688 292.058594 C 178.796875 292.058594 177.671875 290.9375 177.671875 289.554688 " fill-opacity="1" fill-rule="nonzero"></path></g><g clip-path="url(#id8)"><path fill="rgb(77.249146%, 84.709167%, 64.309692%)" d="M 218.621094 289.554688 L 187.484375 289.554688 C 190.09375 291.132812 193.15625 292.058594 196.445312 292.058594 L 216.113281 292.058594 C 217.496094 292.058594 218.621094 290.9375 218.621094 289.554688 " fill-opacity="1" fill-rule="nonzero"></path></g><g clip-path="url(#id9)"><path fill="rgb(77.249146%, 84.709167%, 64.309692%)" d="M 163.917969 289.554688 L 141.746094 289.554688 C 141.746094 290.9375 142.867188 292.058594 144.253906 292.058594 L 163.917969 292.058594 C 167.203125 292.058594 170.269531 291.132812 172.878906 289.554688 L 163.917969 289.554688 " fill-opacity="1" fill-rule="nonzero"></path></g><path fill="rgb(77.249146%, 84.709167%, 64.309692%)" d="M 216.113281 287.050781 L 216.113281 289.554688 L 218.621094 289.554688 L 218.621094 287.050781 L 216.113281 287.050781 " fill-opacity="1" fill-rule="nonzero"></path><path fill="rgb(77.249146%, 84.709167%, 64.309692%)" d="M 141.746094 287.050781 L 141.746094 289.554688 L 144.253906 289.554688 L 144.253906 287.050781 L 141.746094 287.050781 " fill-opacity="1" fill-rule="nonzero"></path><path fill="rgb(77.249146%, 84.709167%, 64.309692%)" d="M 203.769531 252.980469 L 184.378906 252.980469 L 184.378906 255.484375 L 203.769531 255.484375 C 209.191406 255.484375 213.605469 259.730469 213.605469 264.960938 L 213.605469 287.050781 L 216.113281 287.050781 L 216.113281 264.960938 C 216.113281 258.34375 210.585938 252.980469 203.769531 252.980469 " fill-opacity="1" fill-rule="nonzero"></path><path fill="rgb(77.249146%, 84.709167%, 64.309692%)" d="M 182.6875 255.484375 L 184.378906 255.484375 L 184.378906 252.980469 L 182.6875 252.980469 L 182.6875 255.484375 " fill-opacity="1" fill-rule="nonzero"></path><path fill="rgb(77.249146%, 84.709167%, 64.309692%)" d="M 156.589844 255.484375 L 175.980469 255.484375 L 175.980469 252.980469 L 156.589844 252.980469 C 149.773438 252.980469 144.253906 258.34375 144.253906 264.960938 L 144.253906 287.050781 L 146.761719 287.050781 L 146.761719 264.960938 C 146.761719 259.730469 151.167969 255.484375 156.589844 255.484375 " fill-opacity="1" fill-rule="nonzero"></path><path fill="rgb(77.249146%, 84.709167%, 64.309692%)" d="M 175.980469 252.980469 L 175.980469 255.484375 L 177.671875 255.484375 L 177.671875 252.980469 L 175.980469 252.980469 " fill-opacity="1" fill-rule="nonzero"></path><path fill="rgb(77.249146%, 84.709167%, 64.309692%)" d="M 184.257812 287.050781 L 182.6875 287.050781 L 182.6875 289.554688 L 187.484375 289.554688 C 186.308594 288.84375 185.222656 288.011719 184.257812 287.050781 " fill-opacity="1" fill-rule="nonzero"></path><path fill="rgb(77.249146%, 84.709167%, 64.309692%)" d="M 176.101562 287.050781 C 175.140625 288.011719 174.054688 288.84375 172.878906 289.554688 L 177.671875 289.554688 L 177.671875 287.050781 L 176.101562 287.050781 " fill-opacity="1" fill-rule="nonzero"></path><path fill="rgb(77.249146%, 84.709167%, 64.309692%)" d="M 184.257812 287.050781 C 185.222656 288.011719 186.308594 288.84375 187.484375 289.554688 L 196.445312 289.554688 C 193.375 289.554688 190.523438 288.625 188.175781 287.050781 L 184.257812 287.050781 " fill-opacity="1" fill-rule="nonzero"></path><path fill="rgb(77.249146%, 84.709167%, 64.309692%)" d="M 213.605469 287.050781 L 188.175781 287.050781 C 190.523438 288.625 193.375 289.554688 196.445312 289.554688 L 216.113281 289.554688 L 216.113281 287.050781 L 213.605469 287.050781 " fill-opacity="1" fill-rule="nonzero"></path><path fill="rgb(77.249146%, 84.709167%, 64.309692%)" d="M 176.101562 287.050781 L 172.183594 287.050781 C 169.835938 288.625 166.988281 289.554688 163.917969 289.554688 L 172.878906 289.554688 C 174.054688 288.84375 175.140625 288.011719 176.101562 287.050781 " fill-opacity="1" fill-rule="nonzero"></path><path fill="rgb(77.249146%, 84.709167%, 64.309692%)" d="M 163.917969 287.050781 L 144.253906 287.050781 L 144.253906 289.554688 L 163.917969 289.554688 C 166.988281 289.554688 169.835938 288.625 172.183594 287.050781 L 163.917969 287.050781 " fill-opacity="1" fill-rule="nonzero"></path><path fill="rgb(77.249146%, 84.709167%, 64.309692%)" d="M 192.8125 102.535156 C 192.8125 103.707031 191.855469 104.65625 190.683594 104.65625 L 184.324219 104.65625 L 184.324219 111.011719 C 184.324219 112.109375 183.484375 113.015625 182.417969 113.125 C 182.351562 113.132812 182.277344 113.132812 182.199219 113.132812 L 178.164062 113.132812 C 178.089844 113.132812 178.015625 113.132812 177.945312 113.125 C 176.875 113.015625 176.035156 112.109375 176.035156 111.011719 L 176.035156 104.65625 L 169.675781 104.65625 C 168.574219 104.65625 167.671875 103.820312 167.5625 102.753906 C 167.554688 102.679688 167.550781 102.609375 167.550781 102.539062 L 167.550781 98.5 C 167.550781 98.429688 167.554688 98.355469 167.5625 98.285156 C 167.671875 97.214844 168.574219 96.378906 169.675781 96.378906 L 176.035156 96.378906 L 176.035156 90.027344 C 176.035156 88.851562 176.988281 87.90625 178.164062 87.90625 L 182.199219 87.90625 C 183.371094 87.90625 184.324219 88.851562 184.324219 90.027344 L 184.324219 96.378906 L 190.683594 96.378906 C 191.855469 96.378906 192.8125 97.332031 192.8125 98.5 Z M 190.683594 93.875 L 186.832031 93.875 L 186.832031 90.027344 C 186.832031 87.476562 184.753906 85.402344 182.199219 85.402344 L 178.164062 85.402344 C 175.609375 85.402344 173.527344 87.476562 173.527344 90.027344 L 173.527344 93.875 L 169.675781 93.875 C 167.289062 93.875 165.3125 95.664062 165.074219 98.011719 C 165.050781 98.171875 165.042969 98.339844 165.042969 98.5 L 165.042969 102.539062 C 165.042969 102.703125 165.050781 102.859375 165.070312 103.007812 C 165.3125 105.375 167.292969 107.160156 169.675781 107.160156 L 173.527344 107.160156 L 173.527344 111.011719 C 173.527344 113.394531 175.320312 115.375 177.671875 115.613281 C 177.835938 115.628906 178 115.636719 178.164062 115.636719 L 182.199219 115.636719 C 182.367188 115.636719 182.535156 115.628906 182.671875 115.617188 C 185.042969 115.375 186.832031 113.394531 186.832031 111.011719 L 186.832031 107.160156 L 190.683594 107.160156 C 193.238281 107.160156 195.320312 105.085938 195.320312 102.535156 L 195.320312 98.5 C 195.320312 95.953125 193.242188 93.875 190.683594 93.875 " fill-opacity="1" fill-rule="nonzero"></path><path fill="rgb(77.249146%, 84.709167%, 64.309692%)" d="M 190.304688 102.152344 L 184.324219 102.152344 C 183.664062 102.152344 183.023438 102.417969 182.554688 102.886719 C 182.082031 103.355469 181.816406 103.992188 181.816406 104.65625 L 181.816406 110.628906 L 178.542969 110.632812 L 178.542969 104.65625 C 178.542969 103.273438 177.421875 102.152344 176.035156 102.152344 L 170.058594 102.152344 L 170.058594 98.882812 L 176.035156 98.882812 C 177.421875 98.882812 178.542969 97.761719 178.542969 96.378906 L 178.542969 90.410156 L 181.816406 90.410156 L 181.816406 96.378906 C 181.816406 97.761719 182.941406 98.882812 184.324219 98.882812 L 190.304688 98.882812 Z M 190.683594 96.378906 L 184.324219 96.378906 L 184.324219 90.027344 C 184.324219 88.851562 183.371094 87.90625 182.199219 87.90625 L 178.164062 87.90625 C 176.988281 87.90625 176.035156 88.851562 176.035156 90.027344 L 176.035156 96.378906 L 169.675781 96.378906 C 168.574219 96.378906 167.671875 97.214844 167.5625 98.285156 C 167.554688 98.355469 167.550781 98.429688 167.550781 98.5 L 167.550781 102.539062 C 167.550781 102.609375 167.554688 102.679688 167.5625 102.753906 C 167.671875 103.820312 168.574219 104.65625 169.675781 104.65625 L 176.035156 104.65625 L 176.035156 111.011719 C 176.035156 112.109375 176.875 113.015625 177.945312 113.125 C 178.015625 113.132812 178.089844 113.132812 178.164062 113.132812 L 182.199219 113.132812 L 182.199219 110.628906 L 182.199219 113.132812 C 182.277344 113.132812 182.351562 113.132812 182.417969 113.125 C 183.484375 113.015625 184.324219 112.109375 184.324219 111.011719 L 184.324219 104.65625 L 190.683594 104.65625 C 191.855469 104.65625 192.8125 103.707031 192.8125 102.535156 L 192.8125 98.5 C 192.8125 97.332031 191.855469 96.378906 190.683594 96.378906 " fill-opacity="1" fill-rule="nonzero"></path><path fill="rgb(77.249146%, 84.709167%, 64.309692%)" d="M 145.074219 150.28125 C 143.6875 150.28125 142.566406 151.402344 142.566406 152.785156 L 142.566406 162.140625 C 142.566406 163.523438 143.6875 164.644531 145.074219 164.644531 C 146.453125 164.644531 147.578125 163.523438 147.578125 162.140625 L 147.578125 156.628906 C 146.332031 154.792969 145.550781 152.632812 145.375 150.3125 C 145.273438 150.300781 145.175781 150.28125 145.074219 150.28125 " fill-opacity="1" fill-rule="nonzero"></path><path fill="rgb(77.249146%, 84.709167%, 64.309692%)" d="M 145.375 150.3125 C 145.550781 152.632812 146.332031 154.792969 147.578125 156.628906 L 147.578125 152.785156 C 147.578125 151.503906 146.613281 150.460938 145.375 150.3125 " fill-opacity="1" fill-rule="nonzero"></path><path fill="rgb(77.249146%, 84.709167%, 64.309692%)" d="M 162.628906 164.644531 C 163.851562 164.644531 164.863281 163.769531 165.089844 162.613281 L 160.167969 162.613281 C 160.386719 163.769531 161.402344 164.644531 162.628906 164.644531 " fill-opacity="1" fill-rule="nonzero"></path><path fill="rgb(77.249146%, 84.709167%, 64.309692%)" d="M 165.136719 152.785156 C 165.136719 151.402344 164.011719 150.28125 162.628906 150.28125 C 161.242188 150.28125 160.121094 151.402344 160.121094 152.785156 L 160.121094 157.605469 L 165.136719 157.605469 L 165.136719 152.785156 " fill-opacity="1" fill-rule="nonzero"></path><path fill="rgb(77.249146%, 84.709167%, 64.309692%)" d="M 165.136719 160.109375 L 160.121094 160.109375 L 160.121094 162.140625 C 160.121094 162.304688 160.136719 162.460938 160.167969 162.613281 L 165.089844 162.613281 C 165.117188 162.460938 165.136719 162.304688 165.136719 162.140625 L 165.136719 160.109375 " fill-opacity="1" fill-rule="nonzero"></path><path fill="rgb(77.249146%, 84.709167%, 64.309692%)" d="M 165.136719 157.605469 L 160.121094 157.605469 L 160.121094 160.109375 L 165.136719 160.109375 L 165.136719 157.605469 " fill-opacity="1" fill-rule="nonzero"></path><path fill="rgb(77.249146%, 84.709167%, 64.309692%)" d="M 180.179688 164.644531 C 181.402344 164.644531 182.417969 163.769531 182.640625 162.613281 L 177.71875 162.613281 C 177.941406 163.769531 178.957031 164.644531 180.179688 164.644531 " fill-opacity="1" fill-rule="nonzero"></path><path fill="rgb(77.249146%, 84.709167%, 64.309692%)" d="M 182.6875 152.785156 C 182.6875 151.402344 181.566406 150.28125 180.179688 150.28125 C 178.796875 150.28125 177.671875 151.402344 177.671875 152.785156 L 177.671875 157.605469 L 182.6875 157.605469 L 182.6875 152.785156 " fill-opacity="1" fill-rule="nonzero"></path><path fill="rgb(77.249146%, 84.709167%, 64.309692%)" d="M 182.6875 160.109375 L 177.671875 160.109375 L 177.671875 162.140625 C 177.671875 162.304688 177.691406 162.460938 177.71875 162.613281 L 182.640625 162.613281 C 182.667969 162.460938 182.6875 162.304688 182.6875 162.140625 L 182.6875 160.109375 " fill-opacity="1" fill-rule="nonzero"></path><path fill="rgb(77.249146%, 84.709167%, 64.309692%)" d="M 180.179688 160.109375 L 182.6875 160.109375 L 182.6875 157.605469 L 177.671875 157.605469 L 177.671875 160.109375 L 180.179688 160.109375 " fill-opacity="1" fill-rule="nonzero"></path><path fill="rgb(77.249146%, 84.709167%, 64.309692%)" d="M 197.734375 164.644531 C 198.957031 164.644531 199.976562 163.769531 200.195312 162.613281 L 195.277344 162.613281 C 195.496094 163.769531 196.515625 164.644531 197.734375 164.644531 " fill-opacity="1" fill-rule="nonzero"></path><path fill="rgb(77.249146%, 84.709167%, 64.309692%)" d="M 200.242188 152.785156 C 200.242188 151.402344 199.117188 150.28125 197.734375 150.28125 C 196.351562 150.28125 195.230469 151.402344 195.230469 152.785156 L 195.230469 157.605469 L 200.242188 157.605469 L 200.242188 152.785156 " fill-opacity="1" fill-rule="nonzero"></path><path fill="rgb(77.249146%, 84.709167%, 64.309692%)" d="M 200.242188 160.109375 L 195.230469 160.109375 L 195.230469 162.140625 C 195.230469 162.304688 195.25 162.460938 195.277344 162.613281 L 200.195312 162.613281 C 200.222656 162.460938 200.242188 162.304688 200.242188 162.140625 L 200.242188 160.109375 " fill-opacity="1" fill-rule="nonzero"></path><path fill="rgb(77.249146%, 84.709167%, 64.309692%)" d="M 200.242188 160.109375 L 200.242188 157.605469 L 195.230469 157.605469 L 195.230469 160.109375 L 200.242188 160.109375 " fill-opacity="1" fill-rule="nonzero"></path><path fill="rgb(77.249146%, 84.709167%, 64.309692%)" d="M 212.78125 162.140625 C 212.78125 163.523438 213.90625 164.644531 215.289062 164.644531 C 216.675781 164.644531 217.792969 163.523438 217.792969 162.140625 L 217.792969 152.785156 C 217.792969 151.402344 216.675781 150.28125 215.289062 150.28125 C 215.1875 150.28125 215.089844 150.300781 214.988281 150.3125 C 214.808594 152.632812 214.03125 154.792969 212.78125 156.628906 L 212.78125 162.140625 " fill-opacity="1" fill-rule="nonzero"></path><path fill="rgb(77.249146%, 84.709167%, 64.309692%)" d="M 212.78125 152.785156 L 212.78125 156.628906 C 214.03125 154.792969 214.808594 152.632812 214.988281 150.3125 C 213.75 150.460938 212.78125 151.503906 212.78125 152.785156 " fill-opacity="1" fill-rule="nonzero"></path><path fill="rgb(77.249146%, 84.709167%, 64.309692%)" d="M 142.566406 175.371094 L 142.566406 184.726562 C 142.566406 186.109375 143.6875 187.230469 145.074219 187.230469 C 146.453125 187.230469 147.578125 186.109375 147.578125 184.726562 L 147.578125 175.371094 C 147.578125 174.980469 147.476562 174.613281 147.320312 174.285156 L 142.820312 174.285156 C 142.664062 174.613281 142.566406 174.980469 142.566406 175.371094 " fill-opacity="1" fill-rule="nonzero"></path><path fill="rgb(77.249146%, 84.709167%, 64.309692%)" d="M 145.074219 172.867188 C 144.078125 172.867188 143.226562 173.449219 142.820312 174.285156 L 147.320312 174.285156 C 146.914062 173.449219 146.0625 172.867188 145.074219 172.867188 " fill-opacity="1" fill-rule="nonzero"></path><path fill="rgb(77.249146%, 84.709167%, 64.309692%)" d="M 160.375 174.285156 C 160.214844 174.613281 160.121094 174.980469 160.121094 175.371094 L 160.121094 184.726562 C 160.121094 186.109375 161.242188 187.230469 162.628906 187.230469 C 164.011719 187.230469 165.136719 186.109375 165.136719 184.726562 L 165.136719 175.371094 C 165.136719 175.003906 165.046875 174.648438 164.898438 174.332031 C 164.574219 174.308594 164.25 174.285156 163.917969 174.285156 L 160.375 174.285156 " fill-opacity="1" fill-rule="nonzero"></path><path fill="rgb(77.249146%, 84.709167%, 64.309692%)" d="M 162.628906 172.867188 C 161.632812 172.867188 160.785156 173.449219 160.375 174.285156 L 163.917969 174.285156 C 164.25 174.285156 164.574219 174.308594 164.898438 174.332031 C 164.507812 173.472656 163.640625 172.867188 162.628906 172.867188 " fill-opacity="1" fill-rule="nonzero"></path><path fill="rgb(77.249146%, 84.709167%, 64.309692%)" d="M 182.6875 176.105469 L 182.6875 175.371094 C 182.6875 173.988281 181.566406 172.867188 180.179688 172.867188 C 178.796875 172.867188 177.671875 173.988281 177.671875 175.371094 L 177.671875 176.101562 C 178.753906 177.539062 179.613281 179.132812 180.179688 180.863281 C 180.746094 179.132812 181.605469 177.539062 182.6875 176.105469 " fill-opacity="1" fill-rule="nonzero"></path><path fill="rgb(77.249146%, 84.709167%, 64.309692%)" d="M 180.996094 185.933594 L 180.996094 187.082031 C 181.324219 186.96875 181.621094 186.792969 181.871094 186.5625 L 181.871094 185.933594 C 181.871094 184.308594 182.164062 182.753906 182.6875 181.300781 L 182.6875 176.105469 C 181.605469 177.539062 180.746094 179.132812 180.179688 180.863281 C 180.703125 182.464844 180.996094 184.164062 180.996094 185.933594 " fill-opacity="1" fill-rule="nonzero"></path><path fill="rgb(77.249146%, 84.709167%, 64.309692%)" d="M 181.871094 186.5625 C 182.371094 186.105469 182.6875 185.457031 182.6875 184.726562 L 182.6875 181.300781 C 182.164062 182.753906 181.871094 184.308594 181.871094 185.933594 L 181.871094 186.5625 " fill-opacity="1" fill-rule="nonzero"></path><path fill="rgb(77.249146%, 84.709167%, 64.309692%)" d="M 179.367188 185.933594 C 179.367188 184.164062 179.65625 182.464844 180.179688 180.863281 C 179.613281 179.132812 178.753906 177.539062 177.671875 176.101562 L 177.671875 181.296875 C 178.195312 182.753906 178.488281 184.304688 178.488281 185.933594 L 178.488281 186.566406 C 178.738281 186.796875 179.035156 186.96875 179.367188 187.082031 L 179.367188 185.933594 " fill-opacity="1" fill-rule="nonzero"></path><path fill="rgb(77.249146%, 84.709167%, 64.309692%)" d="M 180.996094 187.082031 L 180.996094 185.933594 C 180.996094 184.164062 180.703125 182.464844 180.179688 180.863281 C 179.65625 182.464844 179.367188 184.164062 179.367188 185.933594 L 179.367188 187.082031 C 179.621094 187.171875 179.894531 187.230469 180.179688 187.230469 C 180.46875 187.230469 180.738281 187.171875 180.996094 187.082031 " fill-opacity="1" fill-rule="nonzero"></path><path fill="rgb(77.249146%, 84.709167%, 64.309692%)" d="M 177.671875 181.296875 L 177.671875 184.726562 C 177.671875 185.457031 177.992188 186.109375 178.488281 186.566406 L 178.488281 185.933594 C 178.488281 184.304688 178.195312 182.753906 177.671875 181.296875 " fill-opacity="1" fill-rule="nonzero"></path><path fill="rgb(77.249146%, 84.709167%, 64.309692%)" d="M 195.460938 174.332031 C 195.316406 174.648438 195.230469 175.003906 195.230469 175.371094 L 195.230469 184.726562 C 195.230469 186.109375 196.351562 187.230469 197.734375 187.230469 C 199.117188 187.230469 200.242188 186.109375 200.242188 184.726562 L 200.242188 175.371094 C 200.242188 174.980469 200.144531 174.613281 199.984375 174.285156 L 196.445312 174.285156 C 196.113281 174.285156 195.785156 174.308594 195.460938 174.332031 " fill-opacity="1" fill-rule="nonzero"></path><path fill="rgb(77.249146%, 84.709167%, 64.309692%)" d="M 197.734375 172.867188 C 196.726562 172.867188 195.855469 173.472656 195.460938 174.332031 C 195.785156 174.308594 196.113281 174.285156 196.445312 174.285156 L 199.984375 174.285156 C 199.582031 173.449219 198.730469 172.867188 197.734375 172.867188 " fill-opacity="1" fill-rule="nonzero"></path><path fill="rgb(77.249146%, 84.709167%, 64.309692%)" d="M 212.78125 175.371094 L 212.78125 184.726562 C 212.78125 186.109375 213.90625 187.230469 215.289062 187.230469 C 216.675781 187.230469 217.792969 186.109375 217.792969 184.726562 L 217.792969 175.371094 C 217.792969 174.980469 217.699219 174.613281 217.539062 174.285156 L 213.039062 174.285156 C 212.882812 174.613281 212.78125 174.980469 212.78125 175.371094 " fill-opacity="1" fill-rule="nonzero"></path><path fill="rgb(77.249146%, 84.709167%, 64.309692%)" d="M 215.289062 172.867188 C 214.296875 172.867188 213.445312 173.449219 213.039062 174.285156 L 217.539062 174.285156 C 217.132812 173.449219 216.28125 172.867188 215.289062 172.867188 " fill-opacity="1" fill-rule="nonzero"></path><path fill="rgb(77.249146%, 84.709167%, 64.309692%)" d="M 145.074219 209.820312 C 146.453125 209.820312 147.578125 208.695312 147.578125 207.316406 L 147.578125 197.957031 C 147.578125 196.574219 146.453125 195.453125 145.074219 195.453125 C 143.6875 195.453125 142.566406 196.574219 142.566406 197.957031 L 142.566406 207.316406 C 142.566406 208.695312 143.6875 209.820312 145.074219 209.820312 " fill-opacity="1" fill-rule="nonzero"></path><path fill="rgb(77.249146%, 84.709167%, 64.309692%)" d="M 162.628906 209.820312 C 164.011719 209.820312 165.136719 208.695312 165.136719 207.316406 L 165.136719 197.957031 C 165.136719 196.574219 164.011719 195.453125 162.628906 195.453125 C 161.242188 195.453125 160.121094 196.574219 160.121094 197.957031 L 160.121094 207.316406 C 160.121094 208.695312 161.242188 209.820312 162.628906 209.820312 " fill-opacity="1" fill-rule="nonzero"></path><path fill="rgb(77.249146%, 84.709167%, 64.309692%)" d="M 180.996094 209.667969 C 181.324219 209.554688 181.621094 209.378906 181.871094 209.148438 L 181.871094 196.121094 C 181.621094 195.890625 181.324219 195.714844 180.996094 195.601562 L 180.996094 209.667969 " fill-opacity="1" fill-rule="nonzero"></path><path fill="rgb(77.249146%, 84.709167%, 64.309692%)" d="M 182.6875 207.316406 L 182.6875 197.957031 C 182.6875 197.226562 182.371094 196.578125 181.871094 196.121094 L 181.871094 209.148438 C 182.371094 208.691406 182.6875 208.042969 182.6875 207.316406 " fill-opacity="1" fill-rule="nonzero"></path><path fill="rgb(77.249146%, 84.709167%, 64.309692%)" d="M 179.367188 195.601562 C 179.035156 195.714844 178.738281 195.890625 178.488281 196.117188 L 178.488281 209.152344 C 178.738281 209.382812 179.035156 209.554688 179.367188 209.667969 L 179.367188 195.601562 " fill-opacity="1" fill-rule="nonzero"></path><path fill="rgb(77.249146%, 84.709167%, 64.309692%)" d="M 180.996094 209.667969 L 180.996094 195.601562 C 180.738281 195.511719 180.46875 195.453125 180.179688 195.453125 C 179.894531 195.453125 179.621094 195.511719 179.367188 195.601562 L 179.367188 209.667969 C 179.621094 209.757812 179.894531 209.820312 180.179688 209.820312 C 180.46875 209.820312 180.738281 209.757812 180.996094 209.667969 " fill-opacity="1" fill-rule="nonzero"></path><path fill="rgb(77.249146%, 84.709167%, 64.309692%)" d="M 177.671875 197.957031 L 177.671875 207.316406 C 177.671875 208.042969 177.992188 208.695312 178.488281 209.152344 L 178.488281 196.117188 C 177.992188 196.574219 177.671875 197.226562 177.671875 197.957031 " fill-opacity="1" fill-rule="nonzero"></path><path fill="rgb(77.249146%, 84.709167%, 64.309692%)" d="M 197.734375 195.453125 C 196.351562 195.453125 195.230469 196.574219 195.230469 197.957031 L 195.230469 207.316406 C 195.230469 208.695312 196.351562 209.820312 197.734375 209.820312 C 199.117188 209.820312 200.242188 208.695312 200.242188 207.316406 L 200.242188 197.957031 C 200.242188 196.574219 199.117188 195.453125 197.734375 195.453125 " fill-opacity="1" fill-rule="nonzero"></path><path fill="rgb(77.249146%, 84.709167%, 64.309692%)" d="M 215.289062 195.453125 C 213.90625 195.453125 212.78125 196.574219 212.78125 197.957031 L 212.78125 207.316406 C 212.78125 208.695312 213.90625 209.820312 215.289062 209.820312 C 216.675781 209.820312 217.792969 208.695312 217.792969 207.316406 L 217.792969 197.957031 C 217.792969 196.574219 216.675781 195.453125 215.289062 195.453125 " fill-opacity="1" fill-rule="nonzero"></path><path fill="rgb(77.249146%, 84.709167%, 64.309692%)" d="M 145.074219 232.40625 C 146.453125 232.40625 147.578125 231.285156 147.578125 229.902344 L 147.578125 220.546875 C 147.578125 219.160156 146.453125 218.042969 145.074219 218.042969 C 143.6875 218.042969 142.566406 219.160156 142.566406 220.546875 L 142.566406 229.902344 C 142.566406 231.285156 143.6875 232.40625 145.074219 232.40625 " fill-opacity="1" fill-rule="nonzero"></path><path fill="rgb(77.249146%, 84.709167%, 64.309692%)" d="M 162.628906 232.40625 C 164.011719 232.40625 165.136719 231.285156 165.136719 229.902344 L 165.136719 220.546875 C 165.136719 219.160156 164.011719 218.042969 162.628906 218.042969 C 161.242188 218.042969 160.121094 219.160156 160.121094 220.546875 L 160.121094 229.902344 C 160.121094 231.285156 161.242188 232.40625 162.628906 232.40625 " fill-opacity="1" fill-rule="nonzero"></path><path fill="rgb(77.249146%, 84.709167%, 64.309692%)" d="M 180.996094 232.253906 C 181.324219 232.140625 181.621094 231.96875 181.871094 231.738281 L 181.871094 218.707031 C 181.621094 218.476562 181.324219 218.300781 180.996094 218.1875 L 180.996094 232.253906 " fill-opacity="1" fill-rule="nonzero"></path><path fill="rgb(77.249146%, 84.709167%, 64.309692%)" d="M 182.6875 229.902344 L 182.6875 220.546875 C 182.6875 219.816406 182.371094 219.164062 181.871094 218.707031 L 181.871094 231.738281 C 182.371094 231.28125 182.6875 230.632812 182.6875 229.902344 " fill-opacity="1" fill-rule="nonzero"></path><path fill="rgb(77.249146%, 84.709167%, 64.309692%)" d="M 179.367188 218.1875 C 179.035156 218.300781 178.738281 218.476562 178.488281 218.707031 L 178.488281 231.738281 C 178.738281 231.96875 179.035156 232.144531 179.367188 232.257812 L 179.367188 218.1875 " fill-opacity="1" fill-rule="nonzero"></path><path fill="rgb(77.249146%, 84.709167%, 64.309692%)" d="M 180.996094 232.253906 L 180.996094 218.1875 C 180.738281 218.097656 180.46875 218.042969 180.179688 218.042969 C 179.894531 218.042969 179.621094 218.097656 179.367188 218.1875 L 179.367188 232.257812 C 179.621094 232.347656 179.894531 232.40625 180.179688 232.40625 C 180.46875 232.40625 180.738281 232.347656 180.996094 232.253906 " fill-opacity="1" fill-rule="nonzero"></path><path fill="rgb(77.249146%, 84.709167%, 64.309692%)" d="M 177.671875 220.546875 L 177.671875 229.902344 C 177.671875 230.632812 177.992188 231.28125 178.488281 231.738281 L 178.488281 218.707031 C 177.992188 219.164062 177.671875 219.816406 177.671875 220.546875 " fill-opacity="1" fill-rule="nonzero"></path><path fill="rgb(77.249146%, 84.709167%, 64.309692%)" d="M 197.734375 218.042969 C 196.351562 218.042969 195.230469 219.160156 195.230469 220.546875 L 195.230469 229.902344 C 195.230469 231.285156 196.351562 232.40625 197.734375 232.40625 C 199.117188 232.40625 200.242188 231.285156 200.242188 229.902344 L 200.242188 220.546875 C 200.242188 219.160156 199.117188 218.042969 197.734375 218.042969 " fill-opacity="1" fill-rule="nonzero"></path><path fill="rgb(77.249146%, 84.709167%, 64.309692%)" d="M 215.289062 218.042969 C 213.90625 218.042969 212.78125 219.160156 212.78125 220.546875 L 212.78125 229.902344 C 212.78125 231.285156 213.90625 232.40625 215.289062 232.40625 C 216.675781 232.40625 217.792969 231.285156 217.792969 229.902344 L 217.792969 220.546875 C 217.792969 219.160156 216.675781 218.042969 215.289062 218.042969 " fill-opacity="1" fill-rule="nonzero"></path><path fill="rgb(77.249146%, 84.709167%, 64.309692%)" d="M 180.179688 280.476562 C 179.613281 282.203125 178.753906 283.800781 177.671875 285.234375 L 177.671875 287.050781 L 182.6875 287.050781 L 182.6875 285.234375 C 181.605469 283.800781 180.746094 282.199219 180.179688 280.476562 " fill-opacity="1" fill-rule="nonzero"></path><path fill="rgb(77.249146%, 84.709167%, 64.309692%)" d="M 181.871094 255.484375 L 180.996094 255.484375 L 180.996094 275.40625 C 180.996094 277.171875 180.703125 278.875 180.179688 280.476562 C 180.746094 282.199219 181.605469 283.800781 182.6875 285.234375 L 182.6875 280.039062 C 182.164062 278.582031 181.871094 277.027344 181.871094 275.40625 L 181.871094 255.484375 " fill-opacity="1" fill-rule="nonzero"></path><path fill="rgb(77.249146%, 84.709167%, 64.309692%)" d="M 181.871094 275.40625 C 181.871094 277.027344 182.164062 278.582031 182.6875 280.039062 L 182.6875 255.484375 L 181.871094 255.484375 L 181.871094 275.40625 " fill-opacity="1" fill-rule="nonzero"></path><path fill="rgb(77.249146%, 84.709167%, 64.309692%)" d="M 179.367188 255.484375 L 178.488281 255.484375 L 178.488281 275.40625 C 178.488281 277.03125 178.195312 278.585938 177.671875 280.042969 L 177.671875 285.234375 C 178.753906 283.800781 179.613281 282.203125 180.179688 280.476562 C 179.65625 278.875 179.367188 277.171875 179.367188 275.40625 L 179.367188 255.484375 " fill-opacity="1" fill-rule="nonzero"></path><path fill="rgb(77.249146%, 84.709167%, 64.309692%)" d="M 180.996094 255.484375 L 179.367188 255.484375 L 179.367188 275.40625 C 179.367188 277.171875 179.65625 278.875 180.179688 280.476562 C 180.703125 278.875 180.996094 277.171875 180.996094 275.40625 L 180.996094 255.484375 " fill-opacity="1" fill-rule="nonzero"></path><path fill="rgb(77.249146%, 84.709167%, 64.309692%)" d="M 178.488281 255.484375 L 177.671875 255.484375 L 177.671875 280.042969 C 178.195312 278.585938 178.488281 277.03125 178.488281 275.40625 L 178.488281 255.484375 " fill-opacity="1" fill-rule="nonzero"></path><path fill="rgb(77.249146%, 84.709167%, 64.309692%)" d="M 180.996094 252.980469 L 181.871094 252.980469 L 181.871094 251.140625 C 181.621094 250.910156 181.324219 250.734375 180.996094 250.621094 L 180.996094 252.980469 " fill-opacity="1" fill-rule="nonzero"></path><path fill="rgb(77.249146%, 84.709167%, 64.309692%)" d="M 182.6875 252.980469 C 182.6875 252.246094 182.371094 251.597656 181.871094 251.140625 L 181.871094 252.980469 L 182.6875 252.980469 " fill-opacity="1" fill-rule="nonzero"></path><path fill="rgb(77.249146%, 84.709167%, 64.309692%)" d="M 179.367188 250.621094 C 179.035156 250.734375 178.738281 250.910156 178.488281 251.140625 L 178.488281 252.980469 L 179.367188 252.980469 L 179.367188 250.621094 " fill-opacity="1" fill-rule="nonzero"></path><path fill="rgb(77.249146%, 84.709167%, 64.309692%)" d="M 180.996094 252.980469 L 180.996094 250.621094 C 180.738281 250.535156 180.46875 250.476562 180.179688 250.476562 C 179.894531 250.476562 179.621094 250.535156 179.367188 250.621094 L 179.367188 252.980469 L 180.996094 252.980469 " fill-opacity="1" fill-rule="nonzero"></path><path fill="rgb(77.249146%, 84.709167%, 64.309692%)" d="M 177.671875 252.980469 L 178.488281 252.980469 L 178.488281 251.140625 C 177.992188 251.597656 177.671875 252.246094 177.671875 252.980469 " fill-opacity="1" fill-rule="nonzero"></path><g clip-path="url(#id10)"><path fill="rgb(77.249146%, 84.709167%, 64.309692%)" d="M 182.6875 289.554688 L 177.671875 289.554688 C 177.671875 290.9375 178.796875 292.058594 180.179688 292.058594 C 181.566406 292.058594 182.6875 290.9375 182.6875 289.554688 " fill-opacity="1" fill-rule="nonzero"></path></g><path fill="rgb(77.249146%, 84.709167%, 64.309692%)" d="M 180.996094 255.484375 L 181.871094 255.484375 L 181.871094 252.980469 L 180.996094 252.980469 L 180.996094 255.484375 " fill-opacity="1" fill-rule="nonzero"></path><path fill="rgb(77.249146%, 84.709167%, 64.309692%)" d="M 181.871094 252.980469 L 181.871094 255.484375 L 182.6875 255.484375 L 182.6875 252.980469 L 181.871094 252.980469 " fill-opacity="1" fill-rule="nonzero"></path><path fill="rgb(77.249146%, 84.709167%, 64.309692%)" d="M 178.488281 252.980469 L 178.488281 255.484375 L 179.367188 255.484375 L 179.367188 252.980469 L 178.488281 252.980469 " fill-opacity="1" fill-rule="nonzero"></path><path fill="rgb(77.249146%, 84.709167%, 64.309692%)" d="M 179.367188 252.980469 L 179.367188 255.484375 L 180.996094 255.484375 L 180.996094 252.980469 L 179.367188 252.980469 " fill-opacity="1" fill-rule="nonzero"></path><path fill="rgb(77.249146%, 84.709167%, 64.309692%)" d="M 178.488281 252.980469 L 177.671875 252.980469 L 177.671875 255.484375 L 178.488281 255.484375 L 178.488281 252.980469 " fill-opacity="1" fill-rule="nonzero"></path><path fill="rgb(77.249146%, 84.709167%, 64.309692%)" d="M 177.671875 287.050781 L 177.671875 289.554688 L 182.6875 289.554688 L 182.6875 287.050781 L 177.671875 287.050781 " fill-opacity="1" fill-rule="nonzero"></path></svg>